<?xml version="1.0" standalone="no"?>
<!DOCTYPE svg PUBLIC "-//W3C//DTD SVG 1.1//EN" "http://www.w3.org/Graphics/SVG/1.1/DTD/svg11.dtd" >
<svg xmlns="http://www.w3.org/2000/svg">
<metadata>Generated by IcoMoon</metadata>
<defs>
<font id="icon-yoodo-mp" horiz-adv-x="1024">
<font-face units-per-em="1024" ascent="960" descent="-64" />
<missing-glyph horiz-adv-x="1024" />
<glyph unicode="&#x20;" horiz-adv-x="512" d="" />
<glyph unicode="&#xe900;" glyph-name="chevron-left" horiz-adv-x="572" d="M512 813.227c-85.333-105.244-170.667-211.342-259.413-314.88-14.146-11.822-23.080-29.472-23.080-49.209s8.934-37.387 22.978-49.127l0.101-0.082c66.276-75.378 128.569-154.169 192-232.107 41.529-51.2 81.92-103.253 126.862-159.858-29.326-16.589-53.662-32.206-77.116-48.979l2.591 1.761c-47.787-37.831-81.351-32.711-121.173 17.351-106.951 134.258-220.444 263.396-331.093 395.093-60.302 72.249-59.733 77.938 2.844 152.178 98.133 116.053 196.551 231.822 293.831 347.876 92.444 110.364 92.16 110.649 211.058 28.444 3.413-2.276 5.12-7.111 13.653-18.489-18.204-24.462-34.987-47.787-54.044-69.973z" />
<glyph unicode="&#xe901;" glyph-name="chevron-right" horiz-adv-x="572" d="M5.689 882.631c8.249 11.378 10.24 16.213 13.653 18.489 118.898 82.773 118.613 82.489 211.058-28.444 97.564-115.484 196.267-231.253 294.116-347.307 62.578-74.24 63.147-79.929 2.56-152.178-110.364-131.698-223.858-260.836-331.378-395.093-39.822-50.062-73.387-55.182-121.173-17.351-20.862 15.011-45.198 30.629-70.333 45.009l-4.191 2.209c44.942 56.889 85.333 108.658 126.862 159.858 63.431 77.938 125.724 156.729 192 232.107 14.146 11.822 23.080 29.472 23.080 49.209s-8.934 37.387-22.978 49.127l-0.101 0.082c-87.609 103.538-173.511 209.636-259.698 314.88-18.204 22.187-34.987 45.511-53.476 69.404z" />
<glyph unicode="&#xe902;" glyph-name="star" horiz-adv-x="1077" d="M538.531 111.011l-332.8-175.011 63.302 372.364-269.033 260.655 372.364 53.993 166.167 336.989 166.167-336.989 372.364-53.993-269.498-260.655 63.302-372.364z" />
<glyph unicode="&#xe903;" glyph-name="play" horiz-adv-x="907" d="M0 446.792v411.093c0 36.234 0 72.029 35.136 92.672s68.516 2.416 99.699-15.592l707.555-412.411c84.986-49.849 85.644-107.385 0-156.356q-351.362-203.79-704.041-406.921c-84.546-48.971-133.737-19.984-133.957 78.398z" />
<glyph unicode="&#xe904;" glyph-name="arrow-right" horiz-adv-x="1392" d="M752.92 3.892c0.193-37.349 30.515-67.553 67.891-67.553 17.266 0 33.027 6.445 45.008 17.061l-0.071-0.062 503.575 444.963c13.963 12.489 22.71 30.561 22.71 50.675s-8.747 38.186-22.645 50.618l-503.64 443.066c-11.91 10.554-27.67 17-44.937 17-37.376 0-67.699-30.203-67.891-67.534v-298.451h-608.343c-81.533 0-147.629-66.096-147.629-147.629s66.096-147.629 147.629-147.629v0h608.343z" />
<glyph unicode="&#xe905;" glyph-name="arrow-left" horiz-adv-x="1105" d="M1104.69 541.819h-718.529l381.038 290.742-97.341 127.44-669.859-511.68 669.859-512.32 97.341 127.44-416.26 318.279h753.751v160.1z" />
<glyph unicode="&#xe906;" glyph-name="data-transfer" horiz-adv-x="819" d="M310.063 660.417v-360.931c0-38.258-31.014-69.272-69.272-69.272s-69.272 31.014-69.272 69.272v0 360.931h-139.567c-0.067-0.001-0.146-0.001-0.224-0.001-17.505 0-31.696 14.191-31.696 31.696 0 8.173 3.093 15.623 8.173 21.245l-0.025-0.028 208.072 235.934c5.836 6.595 14.321 10.731 23.772 10.731s17.936-4.136 23.743-10.698l0.029-0.033 207.561-235.934c5.055-5.594 8.149-13.044 8.149-21.217 0-17.505-14.191-31.696-31.696-31.696-0.079 0-0.158 0-0.237 0.001h0.012zM370.388 235.583c-17.499-0.193-31.61-14.424-31.61-31.95 0-8.039 2.969-15.385 7.87-21l-0.032 0.038 208.328-236.19c5.874-6.521 14.346-10.602 23.772-10.602s17.899 4.082 23.747 10.574l0.025 0.029 208.072 236.19c5.055 5.593 8.148 13.044 8.148 21.216 0 17.494-14.173 31.678-31.663 31.696h-140.591v360.931c-2.282 36.405-32.366 65.066-69.144 65.066s-66.862-28.661-69.134-64.867l-0.010-0.199v-360.931z" />
<glyph unicode="&#xe907;" glyph-name="envelope" horiz-adv-x="1461" d="M125.768 833.852c-16.812 12.828-27.551 32.874-27.551 55.429 0 8.325 1.463 16.309 4.146 23.708l-0.153-0.484c9.503 27.838 35.43 47.501 65.951 47.501 0.324 0 0.648-0.002 0.972-0.007l-0.049 0.001h1122.79c0.162 0.001 0.353 0.002 0.544 0.002 30.519 0 56.445-19.661 65.804-47.008l0.146-0.489c2.581-6.98 4.074-15.041 4.074-23.451 0-22.422-10.613-42.366-27.090-55.081l-0.162-0.12-561.205-437.337c-11.846-9.22-26.927-14.791-43.309-14.819h-0.006c-0.043 0-0.094 0-0.145 0-16.344 0-31.385 5.578-43.324 14.934l0.153-0.116zM1424.101 770.019c-8.135 3.971-17.701 6.292-27.808 6.292-15.602 0-29.911-5.531-41.075-14.74l0.11 0.088-587.803-474.574c-10.339-6.612-22.949-10.539-36.476-10.539s-26.137 3.927-36.752 10.703l0.275-0.164-588.563 473.054c-10.89 8.914-24.956 14.317-40.284 14.317-10.086 0-19.625-2.339-28.105-6.504l0.376 0.167c-22.569-10.171-37.996-32.469-37.996-58.371 0-0.050 0-0.101 0-0.151v0.008-655.056c-0.010-0.565-0.015-1.232-0.015-1.9 0-65.344 52.868-118.34 118.164-118.548h1228.82c62.954 0 113.989 51.035 113.989 113.989v0 661.515c0.012 0.474 0.019 1.032 0.019 1.591 0 25.734-14.873 47.993-36.493 58.652l-0.383 0.171z" />
<glyph unicode="&#xe908;" glyph-name="phone" d="M1019.386 143.63l-4.306 16.61c-15.916 39.281-47.588 69.344-86.964 82.753l-1.009 0.299-134.729 36.912c-8.173 1.805-17.562 2.839-27.191 2.839-33.817 0-64.656-12.75-87.972-33.706l0.121 0.107-49.216-49.216c-177.57 48.99-314.593 186.013-362.728 359.961l-0.855 3.622 48.601 48.601c20.848 23.195 33.599 54.034 33.599 87.851 0 9.63-1.034 19.018-2.997 28.059l0.158-0.868-36.297 134.729c-14.045 40.561-44.547 72.27-83.308 87.633l-0.974 0.34-15.38 5.229c-9.791 2.802-21.036 4.413-32.657 4.413-31.159 0-59.612-11.582-81.29-30.676l0.136 0.117-72.594-73.516c-9.997-14.073-17.477-30.687-21.371-48.637l-0.161-0.886c-0.030-2.658-0.046-5.8-0.046-8.945 0-475.672 385.608-861.28 861.28-861.28 2.287 0 4.573 0.009 6.856 0.027l-0.35-0.002c19.83 3.439 37.46 10.888 52.72 21.507l-0.428-0.282 72.594 72.594c19.26 21.619 31.029 50.279 31.029 81.687 0 11.427-1.558 22.491-4.473 32.99l0.205-0.865z" />
<glyph unicode="&#xe909;" glyph-name="gamepad" horiz-adv-x="1546" d="M1408.062 778.942c-204.002 335.68-510.254 102.25-510.254 102.25-22.982-15.929-51.042-26.112-81.359-27.911l-0.442-0.021h-83.795c-31.42 1.124-60.274 11.219-84.33 27.781l0.535-0.348s-305.754 233.929-510.254-101.752c-86.864-148.324-138.157-326.613-138.157-516.882 0-65.006 5.987-128.613 17.441-190.301l-0.986 6.393c14.465-89.282 61.849-149.635 149.635-141.654s283.308 240.912 283.308 240.912c18.995 20.055 45.228 33.087 74.498 34.899l0.319 0.016h493.794c29.612-1.721 55.877-14.779 74.764-34.857l0.053-0.057s194.026-233.43 283.308-240.912 137.165 52.372 149.635 141.654c11.082 56.884 17.422 122.298 17.422 189.194 0 188.128-50.146 364.543-137.8 516.609l2.665-5.014zM502.274 484.162v-143.151l-149.635 2.993v139.659h-141.155v149.635h149.635v149.635h149.635v-148.637h137.664l3.491-149.635zM1147.199 361.461c-0.148 0-0.323-0.001-0.498-0.001-112.667 0-204.002 91.335-204.002 204.002s91.335 204.002 204.002 204.002c112.667 0 204.002-91.335 204.002-204.002 0-0.175 0-0.35-0.001-0.525v0.027c-0.283-112.278-91.225-203.22-203.476-203.503h-0.027z" />
<glyph unicode="&#xe90a;" glyph-name="lips" horiz-adv-x="1581" d="M1573.737 514.295c-47.717 33.327-87.717 73.976-119.316 120.765l-1.035 1.625c-47.936 58.645-94.343 119.331-143.809 177.466-28.33 31.321-57.971 59.992-89.417 86.595l-1.356 1.118c-41.395 36.371-96.025 58.564-155.837 58.564-21.098 0-41.551-2.761-61.018-7.942l1.652 0.374c-84.415-18.041-156.012-63.875-206.485-127.274l-0.558-0.726-10.199-12.239c-9.317 12.41-18.843 23.391-29.078 33.668l0.010-0.010c-58.41 56.739-136.31 93.692-222.724 99.886l-1.148 0.066c-0.071 0-0.155 0-0.239 0-46.467 0-89.114-16.355-122.499-43.622l0.348 0.276c-66.643-51.369-125.035-107.982-176.496-170.514l-1.48-1.853c-50.996-61.195-106.072-122.39-160.637-181.546-18.649-17.908-38.785-34.645-60.068-49.882l-1.637-1.114-10.709-10.199v-9.179c3.221-3.976 6.733-7.488 10.577-10.605l0.132-0.104c53.058-33.962 97.725-75.869 133.673-124.601l0.957-1.359c61.195-70.884 120.351-144.319 183.586-213.673 171.857-188.175 492.622-231.012 727.713-159.108 138.709 42.837 232.542 158.088 318.725 267.219 60.685 75.984 119.331 152.988 178.996 230.502 8.191 9.876 16.869 18.716 26.231 26.786l0.287 0.242v12.239c-2.033 3.124-4.394 5.81-7.089 8.117l-0.051 0.042zM764.94 333.259c-160.571 3.898-309.719 49.443-438.063 126.185l4.087-2.265c69.189 21.667 129.333 49.899 184.699 84.991l-3.153-1.867c27.087 15.119 59.425 24.021 93.843 24.021 18.694 0 36.776-2.626 53.894-7.53l-1.378 0.338c37.737-9.689 74.964-20.398 112.191-32.127 12.72-4.247 27.364-6.698 42.582-6.698s29.862 2.45 43.562 6.978l-0.98-0.281c32.127 9.689 65.275 17.849 97.912 27.028 16.8 4.361 36.087 6.864 55.959 6.864 41.030 0 79.567-10.673 112.987-29.394l-1.169 0.602c40.797-19.378 82.614-36.207 124.43-50.996 13.769-5.61 29.068-8.159 46.916-13.259-138.93-83.892-306.719-133.527-486.101-133.527-14.848 0-29.617 0.34-44.3 1.013l2.082-0.076z" />
<glyph unicode="&#xe90b;" glyph-name="thumbs-up" horiz-adv-x="1023" d="M1014.637 270.949c-0.859-33.51-20.122-62.328-48.024-76.801l-0.495-0.233c11.899-15.091 19.086-34.381 19.086-55.35 0-6.778-0.751-13.381-2.174-19.73l0.113 0.599c-5.28-26.329-22.831-47.671-46.304-58.104l-0.512-0.203c8.289-12.318 13.23-27.488 13.23-43.813 0-3.007-0.168-5.975-0.494-8.895l0.033 0.359c-0.429-36.296-27.836-66.060-63.080-70.192l-0.335-0.032c-8.868-1.261-19.193-2.032-29.679-2.127l-0.114-0.001h-494.55c-27.435 1.385-51.608 14.272-67.974 33.897l-0.123 0.151c-0.439 1.401-0.692 3.012-0.692 4.682s0.253 3.281 0.723 4.796l-0.031-0.115c0 79.588 0 159.601 0 239.189s0 151.94 0 227.697c-0.033 0.774-0.052 1.683-0.052 2.595 0 19.679 8.729 37.318 22.526 49.259l0.082 0.070c24.685 24.259 49.796 46.816 75.332 69.799 34.474 31.495 69.373 63.415 103.847 93.633 66.759 62.653 116.629 142.545 142.535 232.583l0.893 3.626c0 5.958 3.405 11.491 5.533 17.024 8.023 26.203 31.997 44.93 60.345 44.93 6.094 0 11.986-0.865 17.56-2.48l-0.445 0.11c26.477-4.2 48.548-20.102 61.067-42.139l0.22-0.421c13.501-23.626 21.462-51.923 21.462-82.081 0-11.466-1.151-22.663-3.343-33.483l0.182 1.076c-10.596-55.306-29.681-104.546-56.063-148.941l1.16 2.108c-18.727-33.623-38.304-66.82-57.456-100.017l-7.661-9.789h212.801c0.067 0 0.146 0 0.226 0 31.504 0 60.858-9.201 85.523-25.063l-0.628 0.378c27.483-18.029 45.381-48.696 45.381-83.544 0-32.099-15.186-60.652-38.766-78.865l-0.231-0.171-5.107-4.256c21.481-16.16 35.226-41.603 35.226-70.256 0-4.041-0.273-8.017-0.803-11.913l0.050 0.453zM218.334 487.581h-180.881c-1.414 0.213-3.045 0.335-4.705 0.335-18.334 0-33.197-14.863-33.197-33.197 0-1.922 0.163-3.806 0.477-5.639l-0.028 0.197v-476.675c-0.167-1.244-0.263-2.683-0.263-4.143 0-18.099 14.672-32.771 32.771-32.771 1.594 0 3.161 0.114 4.694 0.334l-0.175-0.021h182.158c1.114-0.134 2.403-0.211 3.711-0.211 18.099 0 32.771 14.672 32.771 32.771 0 1.575-0.111 3.125-0.326 4.641l0.020-0.174v476.249c0.28 1.618 0.439 3.482 0.439 5.383 0 18.334-14.863 33.197-33.197 33.197-1.505 0-2.987-0.1-4.44-0.294l0.17 0.019z" />
<glyph unicode="&#xe90c;" glyph-name="facebook" horiz-adv-x="475" d="M472.405 960c-62.805 0-127.659 2.048-190.123-2.389-87.156-2.507-158.783-65.94-173.912-149.075l-0.168-1.112c-4.85-25.884-7.699-55.736-7.85-86.226l-0.001-0.131c0-30.72 0-61.781 0-95.232h-100.352v-180.565h102.4v-509.269h211.285v512h143.36c6.144 60.416 11.947 118.784 18.432 180.224h-162.475c0 38.912 0 75.776 0 112.299 0 29.355 17.749 43.008 47.445 43.691h111.616z" />
<glyph unicode="&#xe90d;" glyph-name="instagram" d="M512 697.856c-137.992 0-249.856-111.864-249.856-249.856s111.864-249.856 249.856-249.856c137.992 0 249.856 111.864 249.856 249.856v0c-0.194 137.914-111.942 249.662-249.837 249.856h-0.019zM512 269.824c-98.592 0-178.517 79.925-178.517 178.517s79.925 178.517 178.517 178.517c98.592 0 178.517-79.925 178.517-178.517 0-0.12 0-0.24 0-0.36v0.018c0.001-0.204 0.001-0.445 0.001-0.686 0-98.027-79.466-177.493-177.493-177.493-0.361 0-0.721 0.001-1.081 0.003h0.055zM833.195 715.605c-0.194-29.449-24.112-53.247-53.588-53.247-29.597 0-53.589 23.993-53.589 53.589s23.993 53.589 53.589 53.589c0.12 0 0.239 0 0.359-0.001h-0.018c0.001 0 0.003 0 0.004 0 29.408 0 53.248-23.84 53.248-53.248 0-0.24-0.002-0.48-0.005-0.719v0.036zM705.536 960h-387.413c-175.616-0.194-317.928-142.506-318.123-318.104v-387.432c0-175.763 142.387-318.27 318.104-318.464h387.432c175.883 0 318.464 142.581 318.464 318.464v0 387.413c-0.194 175.736-142.701 318.123-318.464 318.123v0zM938.667 254.464c0-128.755-104.376-233.131-233.131-233.131h-387.413c-128.608 0.194-232.789 104.496-232.789 233.13 0 0 0 0 0 0v0 387.413c0.194 128.488 104.301 232.595 232.77 232.789h387.432c0 0 0 0 0 0 128.634 0 232.936-104.182 233.13-232.771v-0.019z" />
<glyph unicode="&#xe90e;" glyph-name="twitter" horiz-adv-x="1252" d="M1251.556 835.982c-31.358-47.618-69.099-88.014-112.599-121.257l-1.179-0.865c-6.542-4.248-10.808-11.519-10.808-19.785 0-1.047 0.068-2.078 0.201-3.089l-0.013 0.119c0.109-4.771 0.172-10.393 0.172-16.029 0-136.414-36.521-264.297-100.32-374.406l1.92 3.591c-50.031-89.333-115.212-164.197-192.833-223.631l-1.727-1.27c-74.812-57.277-163.919-100.073-260.859-122.365l-4.622-0.895c-52.547-12.749-112.875-20.061-174.911-20.061-37.025 0-73.442 2.605-109.078 7.641l4.096-0.474c-108.865 15.033-206.628 52.733-291.718 108.238l2.723-1.666c15.873-1.684 34.29-2.645 52.931-2.645 122.55 0 235.402 41.518 325.26 111.256l-1.207-0.901c-112.055 4.521-205.867 77.838-240.649 178.662l-0.56 1.866c14.054-2.693 30.218-4.233 46.742-4.233 23.838 0 46.928 3.206 68.861 9.21l-1.825-0.426c-116.461 26.137-202.177 128.656-202.177 251.195 0 1.422 0.012 2.842 0.035 4.259l-0.003-0.213c18.204-7.206 35.65-15.17 54.234-20.48 16.558-4.342 36.21-7.699 56.336-9.393l1.312-0.089c-51.63 37.706-88.951 92.315-103.932 155.567l-0.365 1.826c-4.12 17.315-6.482 37.196-6.482 57.628 0 47.61 12.826 92.225 35.211 130.578l-0.664-1.231c127.966-155.81 316.452-257.853 529.012-269.944l1.951-0.089c0 16.308-3.413 31.479-4.551 46.649-0.387 5.135-0.608 11.122-0.608 17.161 0 44.346 11.911 85.91 32.708 121.667l-0.621-1.157c30.394 56.407 80.679 98.8 141.249 118.228l1.732 0.48c25.49 9.533 54.944 15.050 85.687 15.050 67.432 0 128.664-26.543 173.818-69.752l-0.092 0.088c5.309-6.024 13.042-9.805 21.659-9.805 3.241 0 6.357 0.535 9.264 1.521l-0.203-0.060c50.744 12.424 95.347 30.255 136.598 53.358l-2.72-1.399 11.757 6.068c-10.027-30.798-25.036-57.438-44.295-80.392l0.301 0.368c-18.499-23.305-39.882-43.242-63.864-59.662l-0.99-0.64c52.115 5.94 99.694 18.637 144.142 37.311l-3.437-1.281z" />
<glyph unicode="&#xe90f;" glyph-name="youtube" horiz-adv-x="1453" d="M1422.496 800.154c-16.503 63.172-65.049 112.015-126.802 128.664l-1.254 0.288c-113.728 30.895-568.192 30.895-568.192 30.895s-454.464 0-567.297-30.895c-63.042-17.261-111.691-65.909-128.652-127.672l-0.3-1.279c-19.108-102.187-30.037-219.752-30.037-339.869 0-4.241 0.014-8.478 0.041-12.712l-0.003 0.651c-0.024-3.609-0.038-7.878-0.038-12.15 0-120.243 10.929-237.934 31.847-352.133l-1.81 11.905c17.54-62.995 66.041-111.644 127.651-129.085l1.3-0.315c112.833-30.447 567.297-30.447 567.297-30.447s454.464 0 568.192 30.447c62.68 17.778 110.921 66.465 127.757 128.115l0.299 1.284c19.393 102.305 30.485 219.986 30.485 340.258 0 4.261-0.014 8.52-0.042 12.775l0.003-0.655c0.024 3.576 0.038 7.804 0.038 12.036 0 120.146-11.093 237.7-32.31 351.696l1.825-11.801zM613.415 231.962v431.629l379.69-215.367z" />
<glyph unicode="&#xe910;" glyph-name="avatar-support" horiz-adv-x="911" d="M911.368 8.962v-20.898c0-28.799-23.346-52.145-52.145-52.145v0h-807.078c-28.799 0-52.145 23.346-52.145 52.145v0 20.898c0.013 159.15 111.173 292.333 260.087 326.158l2.241 0.428c22.127-23.228 48.014-42.622 76.732-57.258l1.605-0.743c11.752-6.020 25.655-11.647 40.084-16.072l1.872-0.494c11.906-32.16 42.312-54.67 77.976-54.672h103.848c0.004 0 0.008 0 0.013 0 73.832 0 139.275 35.916 179.811 91.23l0.437 0.624c100.354-58.928 166.662-166.321 166.662-289.2 0-0.001 0-0.002 0-0.002v0zM147.77 502.050v148.412c0 0.025 0 0.054 0 0.083 0 19.704 9.619 37.162 24.418 47.933l0.17 0.118c12.089 146.93 134.317 261.596 283.326 261.596s271.236-114.666 283.258-260.573l0.068-1.023c14.969-10.889 24.588-28.346 24.588-48.050 0-0.029 0-0.058 0-0.088v0.005-148.412c0-0.039 0-0.085 0-0.13 0-19.295-9.249-36.43-23.556-47.213l-0.15-0.109v-25.471c-0.114-96.851-78.596-175.332-175.436-175.447h-103.859c-19.627 0-35.539 15.911-35.539 35.539s15.911 35.539 35.539 35.539v0h103.848c57.552 0.114 104.175 46.738 104.289 104.278v25.562c-6.694 5.077-12.191 11.355-16.249 18.551l-0.156 0.301c-7.504-21.114-16.232-39.25-26.616-56.265l0.745 1.313c-6.578-10.67-19.374-30.805-33.533-38.747-8.182-4.753-17.992-7.587-28.458-7.661h-103.869c-0.004 0-0.010 0-0.015 0-29.448 0-55.311-15.353-70.020-38.491l-0.2-0.337c-60.688 22.823-106.736 75.008-130.402 137.261l-0.241 0.682c-0.241 0.722-0.521 1.444-0.802 2.166-10.285-18.426-29.663-30.681-51.904-30.681-32.718 0-59.242 26.522-59.244 59.24v0zM243.596 696.91c6.967-5.486 12.585-12.36 16.492-20.234l0.154-0.343c0.007 0.054 0.011 0.117 0.011 0.181s-0.004 0.126-0.012 0.188l0.001-0.007c32.731 85.076 106.415 148.091 195.302 148.091 86.961 0 161.849-60.929 195.422-148.412 4.076 8.209 9.691 15.080 16.522 20.482l0.125 0.095c-11.167 108.213-101.856 191.891-212.088 191.891s-200.921-83.677-212.012-190.978l-0.076-0.913z" />
<glyph unicode="&#xe911;" glyph-name="ticket-question" horiz-adv-x="1807" d="M1767.79 263.816c-90.328 21.632-150.107 95.29-150.185 184.455s60.012 162.823 150.262 184.455c28.843 6.978 38.767 19.771 38.767 49.932q0 93.042 0 185.23c-0.078 56.135-36.441 92.111-93.119 92.111h-1622.18c-0.141 0.001-0.307 0.001-0.473 0.001-7.874 0-15.557-0.819-22.968-2.377l0.724 0.127c-37.604-8.064-57.531-33.728-68.618-68.386v-225.858c7.95-16.991 23.735-29.155 42.574-31.908l0.302-0.036c84.351-19.659 146.23-94.2 146.23-183.195 0-0.034 0-0.068 0-0.103v0.005c-0.126-88.993-61.931-163.515-144.952-183.115l-1.278-0.254c-19.616-4.419-34.503-13.336-42.877-31.944v-225.858c17.911-56.213 56.6-71.254 107.23-71.099 363.405 1.008 1484.556 0 1607.991 0.62 55.282 0 91.336 36.519 91.491 92.034q0 93.042 0 185.23c-0.155 30.239-10.002 42.954-38.922 49.932zM887.849 139.761c-0.023 0-0.050 0-0.077 0-31.003 0-56.135 25.133-56.135 56.135s25.133 56.135 56.135 56.135c31.003 0 56.135-25.133 56.135-56.135 0-0.027 0-0.054 0-0.082v0.004c0-0.046 0-0.101 0-0.155 0-30.948-25.044-56.047-55.972-56.135h-0.008zM932.664 403.379v-72.96c-1.028-23.978-20.716-43.027-44.854-43.027s-43.826 19.050-44.851 42.935l-0.003 0.093v111.96c0.132 24.693 20.18 44.66 44.892 44.66 0.027 0 0.055 0 0.082 0h-0.004c49.511 0.044 89.63 40.191 89.63 89.708 0 49.544-40.163 89.708-89.708 89.708-49.462 0-89.575-40.031-89.707-89.462v-0.013c0.025-0.557 0.039-1.209 0.039-1.865 0-24.793-20.099-44.893-44.893-44.893s-44.893 20.099-44.893 44.893c0 0.656 0.014 1.309 0.042 1.958l-0.003-0.093c0.014 99.121 80.37 179.468 179.493 179.468 99.131 0 179.493-80.362 179.493-179.493 0-83.206-56.616-153.188-133.426-173.526l-1.252-0.282z" />
<glyph unicode="&#xe912;" glyph-name="map-marker" horiz-adv-x="652" d="M326.268 960c-0.84 0.008-1.833 0.012-2.827 0.012-178.633 0-323.443-144.81-323.443-323.443 0-0.377 0.001-0.754 0.002-1.13v0.059c0-253.528 211.862-568.85 293.429-682.902 7.397-10.182 19.266-16.726 32.662-16.726s25.265 6.544 32.582 16.61l0.080 0.116c82.626 114.052 293.429 429.374 293.429 682.902 0.002 0.423 0.003 0.924 0.003 1.425 0 178.437-144.652 323.090-323.090 323.090-0.994 0-1.988-0.004-2.98-0.013l0.152 0.001zM336.154 463.183c-2.961-0.199-6.419-0.312-9.903-0.312-86.781 0-157.131 70.35-157.131 157.131s70.35 157.131 157.131 157.131c86.781 0 157.131-70.35 157.131-157.131 0-3.617-0.122-7.206-0.363-10.762l0.026 0.481c-5.48-78.749-68.104-141.251-146.411-146.512l-0.48-0.026z" />
<glyph unicode="&#xe913;" glyph-name="budak-bajet" d="M921.6 704h-736.492c-61.046 0-82.708 31.508-82.708 51.2l819.2 76.8v74.831c0 31.508-25.6 53.169-55.138 53.169-1.969 0-3.938 0-5.908 0l-773.908-139.815c-49.231-7.877-86.646-51.2-86.646-102.4v-681.354c0-55.138 45.292-100.431 102.4-100.431h819.2c57.108 0 102.4 45.292 102.4 102.4v561.231c0 57.108-45.292 104.369-102.4 104.369 0 0 0 0 0 0zM844.8 241.231c-43.323 0-76.8 35.446-76.8 76.8 0 43.323 35.446 76.8 76.8 76.8s76.8-33.477 76.8-76.8c0-41.354-33.477-74.831-76.8-76.8z" />
<glyph unicode="&#xe914;" glyph-name="gamer" horiz-adv-x="1548" d="M1408.322 779.446c-203.768 335.315-513.29 103.174-513.29 103.174-23.214-15.476-51.587-25.793-82.539-28.373h-82.539c-28.373 2.579-56.746 10.317-79.96 28.373 0 0-306.942 232.141-510.71-103.174s-123.809-701.582-123.809-701.582c15.476-90.277 61.904-149.602 152.181-141.864s283.728 239.879 283.728 239.879c20.635 20.635 46.428 33.531 74.801 33.531h492.655c28.373-2.579 54.166-12.897 74.801-36.111 0 0 193.451-234.72 283.728-239.879s136.705 51.587 152.181 141.864c0 2.579 82.539 368.846-121.229 704.161v0zM588.091 506.035h-105.753v-103.174c-18.055-10.317-36.111-18.055-56.746-15.476-18.055 0-36.111 5.159-49.008 18.055v100.594h-100.594c-10.317 12.897-15.476 30.952-15.476 46.428-2.579 20.635 2.579 41.27 12.897 61.904h105.753v105.753c15.476 7.738 33.531 10.317 51.587 10.317s36.111-5.159 54.166-12.897v-103.174h100.594c10.317-15.476 18.055-30.952 18.055-49.008 0-20.635-5.159-41.27-15.476-59.325v0zM1073.008 389.965c-46.428 0-85.118 38.69-85.118 85.118s38.69 85.118 85.118 85.118c46.428 0 85.118-38.69 85.118-85.118 0 0 0 0 0 0 0-49.008-38.69-85.118-85.118-85.118zM1073.008 619.526c-46.428 0-82.539 38.69-82.539 85.118s38.69 82.539 85.118 82.539c46.428 0 82.539-38.69 82.539-82.539 0-46.428-38.69-85.118-85.118-85.118 0 0 0 0 0 0zM1281.935 495.718c-46.428 0-82.539 38.69-82.539 85.118s38.69 82.539 85.118 82.539c46.428 0 82.539-38.69 82.539-82.539 0-46.428-36.111-85.118-85.118-85.118 2.579 0 0 0 0 0v0z" />
<glyph unicode="&#xe915;" glyph-name="the-2020" horiz-adv-x="1029" d="M514.573 713.005l108.060 246.995-1.715-269.293 198.968 181.816-113.206-245.28 257.286 85.762-202.399-180.101 267.578-25.729-257.286-80.616 234.988-132.074-267.578 29.159 161.233-216.121-233.273 137.219 58.318-264.147-156.087 219.551-54.888-264.147-53.173 264.147-157.802-219.551 58.318 264.147-231.558-137.219 161.233 216.121-269.293-29.159 234.988 132.074-257.286 80.616 269.293 25.729-202.399 180.101 255.571-85.762-111.491 245.28 198.968-181.816-3.43 269.293z" />
<glyph unicode="&#xe916;" glyph-name="video-binger" horiz-adv-x="823" d="M446.572-64c0 4.154 0 6.231 0 8.308 0 205.631 0 411.262 0 618.97v8.308h145.396c-12.462-211.862-27.002-423.724-39.465-635.586h-105.931zM95.546-64c-2.077 16.617-4.154 33.233-6.231 51.927l-18.694 151.627c-4.154 41.542-10.385 81.006-14.54 122.548l-18.694 149.55c-6.231 45.696-10.385 91.391-16.617 135.010-2.077 8.308-2.077 16.617-4.154 24.925h145.396c0-16.617 2.077-31.156 4.154-47.773l16.617-280.406 12.462-216.016c2.077-29.079 4.154-56.081 4.154-85.16 0-2.077 0-4.154 0-6.231h-103.854zM623.124-64l12.462 201.477c6.231 81.006 10.385 162.012 14.54 240.941 4.154 62.312 8.308 122.548 10.385 184.86 0 2.077 0 4.154 0 6.231h145.396c-2.077-12.462-2.077-24.925-4.154-39.465-6.231-45.696-10.385-93.469-16.617-139.164-6.231-49.85-12.462-99.7-18.694-149.55s-12.462-99.7-18.694-149.55l-18.694-149.55v-8.308l-105.931 2.077zM270.020-64c0 16.617-2.077 33.233-2.077 47.773-4.154 76.852-8.308 151.627-14.54 228.479-6.231 114.239-14.54 228.479-20.771 342.718 0 4.154 0 10.385 0 14.54h145.396v-627.278c0-2.077 0-4.154 0-6.231h-108.008zM189.014 851.992c2.077 8.308 6.231 16.617 8.308 27.002 14.54 41.542 58.158 62.312 99.7 49.85 2.077 0 4.154-2.077 8.308-2.077 8.308-4.154 18.694-8.308 27.002-12.462l16.617 18.694c27.002 33.233 76.852 37.387 110.085 10.385 2.077-2.077 6.231-6.231 8.308-8.308 6.231-6.231 12.462-14.54 18.694-20.771l20.771 10.385c37.387 20.771 87.237 8.308 108.008-31.156 4.154-6.231 6.231-12.462 8.308-16.617 2.077-6.231 4.154-16.617 8.308-20.771s14.54 0 22.848 0c43.619 4.154 83.083-27.002 89.314-70.621 0-6.231 0-14.54 0-20.771-2.077-18.694-2.077-20.771 16.617-24.925 27.002-6.231 49.85-29.079 58.158-56.081 4.154-12.462 4.154-24.925 2.077-37.387h-818.369c-8.308 29.079 4.154 58.158 27.002 74.775 12.462 8.308 27.002 14.54 41.542 20.771 6.231 2.077 8.308 4.154 8.308 12.462-4.154 20.771-2.077 43.619 8.308 62.312 14.54 27.002 43.619 43.619 74.775 41.542l27.002-6.231z" />
<glyph unicode="&#xe917;" glyph-name="arrow-right-narrow" d="M1010.055 481.668l-304.726 304.726c-18.592 18.592-48.745 18.592-67.337 0-18.596-18.596-18.596-48.741 0-67.337l223.444-223.444h-813.823c-26.294 0-47.613-21.319-47.613-47.613 0-26.29 21.319-47.613 47.613-47.613h813.823l-223.436-223.444c-18.596-18.596-18.596-48.741 0-67.337 9.294-9.29 21.483-13.945 33.668-13.945s24.37 4.655 33.668 13.945l304.718 304.726c18.596 18.596 18.596 48.741 0 67.337z" />
<glyph unicode="&#xe918;" glyph-name="hotspot" d="M512 48c-64.176 1.785-115.52 54.235-115.52 118.677 0 65.567 53.153 118.72 118.72 118.72s118.72-53.153 118.72-118.72c0-0.041 0-0.082 0-0.123v0.006c-1.076-65.712-54.598-118.569-120.465-118.569-0.512 0-1.022 0.003-1.533 0.010l0.077-0.001zM800 343.52c-14.857-14.352-35.116-23.195-57.44-23.195s-42.583 8.843-57.464 23.218l0.024-0.023c-44.604 42.982-105.37 69.46-172.32 69.46s-127.716-26.478-172.397-69.534l0.077 0.074c-14.873-14.315-35.127-23.133-57.44-23.133s-42.567 8.817-57.467 23.158l0.027-0.025c-14.688 14.165-23.81 34.017-23.81 56s9.122 41.834 23.786 55.977l0.024 0.023c74.319 71.685 175.602 115.85 287.2 115.85s212.881-44.164 287.324-115.969l-0.124 0.119c14.688-14.165 23.81-34.017 23.81-56s-9.122-41.834-23.786-55.977l-0.024-0.023zM1000.16 539.2c-14.857-14.352-35.116-23.195-57.44-23.195s-42.583 8.843-57.464 23.218l0.024-0.023c-95.619 93.13-226.399 150.567-370.594 150.567-0.944 0-1.888-0.002-2.831-0.007l0.145 0.001c-0.798 0.004-1.742 0.007-2.686 0.007-144.195 0-274.975-57.437-370.71-150.679l0.116 0.113c-14.873-14.315-35.127-23.133-57.44-23.133s-42.567 8.817-57.467 23.158l0.027-0.025c-14.771 14.126-23.952 33.991-23.952 56s9.182 41.874 23.923 55.973l0.029 0.027c125.010 121.734 295.978 196.81 484.48 196.81 1.294 0 2.587-0.004 3.879-0.011l-0.2 0.001c1.044 0.006 2.28 0.009 3.516 0.009 188.583 0 359.616-75.14 484.793-197.114l-0.149 0.145c14.771-14.126 23.952-33.991 23.952-56s-9.182-41.874-23.923-55.973l-0.029-0.027z" />
<glyph unicode="&#xe919;" glyph-name="speed" d="M802.88 538.080h-240l208 376.96c2.46 4.332 3.91 9.517 3.91 15.040s-1.45 10.708-3.99 15.194l0.080-0.154c-5.123 8.951-14.617 14.886-25.498 14.886-0.205 0-0.409-0.002-0.613-0.006h-349.090c-12.929-0.112-23.848-8.587-27.622-20.273l-0.058-0.207-174.56-542.080c-0.874-2.778-1.377-5.973-1.377-9.286 0-6.617 2.009-12.765 5.449-17.868l-0.072 0.114c5.274-7.488 13.882-12.32 23.619-12.32 0.021 0 0.043 0 0.064 0h246.717l-157.12-380.32c-1.506-3.482-2.382-7.537-2.382-11.796 0-10.524 5.347-19.798 13.473-25.255l0.109-0.069c4.388-2.93 9.783-4.675 15.587-4.675 8.689 0 16.464 3.913 21.659 10.073l0.035 0.042 465.44 541.92c4.52 5.336 7.269 12.298 7.269 19.902 0 4.371-0.908 8.53-2.546 12.298l0.077-0.2c-4.417 10.582-14.612 17.916-26.539 18.080h-0.021z" />
<glyph unicode="&#xe91a;" glyph-name="unlimited" d="M0 470.080c2.72 13.92 4.64 28 8.16 41.76 29.265 111.54 129.178 192.488 247.997 192.488 4.56 0 9.092-0.119 13.593-0.355l-0.63 0.026c55.625-3.752 105.485-25.781 144.258-60.064l-0.258 0.224c32-26.88 60.8-57.76 90.88-86.88 2.88-2.72 5.28-5.76 8.64-9.6 8.48 9.28 16 18.080 24.48 26.72 29.292 32.368 61.584 61.054 96.735 85.972l1.825 1.228c134.88 91.84 304 25.76 364.32-103.36 15.622-32.14 24.754-69.915 24.754-109.823 0-124.105-88.311-227.584-205.52-251.024l-1.634-0.273c-13.851-2.889-29.768-4.544-46.071-4.544-50.832 0-97.908 16.082-136.418 43.435l0.729-0.491c-43.25 30.462-80.766 64.726-113.539 103.158l-0.701 0.842-9.6 9.28-8.32-8.8c-31.487-37.406-66.342-70.28-104.608-98.835l-1.632-1.165c-40.142-30.071-90.778-48.152-145.637-48.152-3.025 0-6.038 0.055-9.037 0.164l0.434-0.013c-125.193 6.525-226.184 102.066-241.156 224.203l-0.124 1.237c-0.582 3.465-1.249 6.379-2.064 9.23l0.144-0.59zM428.48 448c-10.080 11.52-19.68 22.56-29.44 33.28-24.742 28.691-52.66 53.61-83.484 74.573l-1.476 0.947c-16.325 11.203-36.293 18.242-57.843 19.192l-0.237 0.008c-0.075 0-0.163 0-0.252 0-70.692 0-128-57.308-128-128 0-8.603 0.849-17.008 2.467-25.136l-0.135 0.815c15.040-81.28 112-134.88 187.36-82.4 41.771 31.577 78.225 66.66 110.149 105.6l0.891 1.12zM595.36 448c12.96-14.4 24.8-28 37.12-41.12 23.805-27.179 50.908-50.619 80.897-69.972l1.503-0.908c16.088-10.264 35.7-16.36 56.736-16.36 16.592 0 32.299 3.792 46.3 10.557l-0.636-0.277c45.022 17.458 76.751 59.588 78.713 109.367l0.007 0.233c0.407 3.731 0.64 8.058 0.64 12.439 0 46.261-25.901 86.472-63.992 106.924l-0.648 0.318c-16.845 10.679-37.357 17.018-59.35 17.018-27.28 0-52.282-9.753-71.71-25.963l0.179 0.145c-39.591-30.53-74.289-64.162-104.881-101.301l-0.879-1.099z" />
</font>
</defs>
</svg>
