<svg id="Layer_1" data-name="Layer 1" xmlns="http://www.w3.org/2000/svg" xmlns:xlink="http://www.w3.org/1999/xlink" viewBox="0 0 1920 317.51"><defs><style>.cls-1{fill:none;}.cls-2{clip-path:url(#clip-path);}.cls-3{fill:#e53e51;}</style><clipPath id="clip-path"><rect class="cls-1" x="-2075.25" y="967.75" width="1920" height="885.87" transform="translate(-2230.49 2821.36) rotate(-180)"/></clipPath></defs><title>yoodo_website_2020_update</title><g class="cls-2"><path class="cls-3" d="M-127.39-.5C-309.8,31.07-484.07,114.66-648.29,210.83c-240,140.51-471.67,309.48-729.19,409.62-155.26,60.37-322.82,92-483.23,62.91-142.87-25.92-276.46-99-421.78-105.28-196.21-8.43-370.52,111.79-481.38,283.48-144.26,223.41-236,516-170.9,781.35,23,93.89,72.78,179,158.92,227.17,135,75.51,283.48-245.64,419.53-270.17,107-19.29,217.52,41,309.65,86.95,272.48,135.92,581.06,18.93,862.72-17.2,30-3.85,60.08-7.53,90.06-11.72,145.16-20.27,299.53-17.65,444.43,2.87,107.2,15.18,212.83,43.23,311.66,87.81,39.67,17.89,81.76,36.61,119.16,58,91.07,52.1,165.25,126.05,254.16,180.05,14.95,9.09,30.22,17.64,45.86,25.49,90.56,45.43,198.23,50.65,296.4,25.61,180.38-46,333.83-183.35,427.44-340.79,87.09-146.46,131.14-317.21,141.2-486.5C984.4,571.89,585.32-75.25-62.35-9.46Q-95-6.13-127.39-.5Z"/></g><path class="cls-3" d="M891.08,126c30.12-3.87,60.26-7.56,90.34-11.76,145.62-20.33,300.47-17.7,445.82,2.88,107.54,15.22,213.5,43.37,312.64,88.09,39.79,17.94,82,36.72,119.52,58.18,22,12.61,43.09,26.49,63.6,41.06V-3H-3V128.87c9.73,4.87,19.29,9.7,28.66,14.37C299,279.59,608.54,162.23,891.08,126Z"/></svg>