<svg xmlns="http://www.w3.org/2000/svg" xmlns:xlink="http://www.w3.org/1999/xlink" viewBox="0 0 1920 434.38">
    <defs>
        <style>.cls-1{opacity:0.75;}.cls-2{fill:#9a1a28;}.cls-3{fill:url(#linear-gradient);}</style>
        <linearGradient id="linear-gradient" x1="2244.05" y1="1335.87" x2="2099.31" y2="394.33"
                        gradientTransform="matrix(2.06, 0.09, -0.04, 1, -3385.46, -308.03)"
                        gradientUnits="userSpaceOnUse">
            <stop offset="0" stop-color="#fff"/>
            <stop offset="0.62" stop-color="#fdfdfd"/>
            <stop offset="0.85" stop-color="#f6f7f8"/>
            <stop offset="1" stop-color="#ebedee"/>
        </linearGradient>
    </defs>
    <title>curve-bottom-red-4</title>
    <g class="cls-1">
        <path class="cls-2"
              d="M433.41,47.41h4.94l5.9-11.5h0a11.94,11.94,0,0,0,7.25,2.45h28.08l-8.37,28.36,6.59-2.65,3.52-5.53a8.77,8.77,0,0,0,1.46.75h3.45V55.85h-3.19l5.27-8.27a9.24,9.24,0,0,0,1.55.81h3.61V44.78H490.1l4-6.35-.09-.06h7.1a42.23,42.23,0,0,0,11.93-1.72l4.51-1.33a2.14,2.14,0,0,0,0-4.12l-4.68-1.33a42,42,0,0,0-11.53-1.61h-7.25l-4-6.32h3.38v-3.6h-3.61a9.67,9.67,0,0,0-1.55.8l-5.27-8.26h3.19V7.43h-3.45a9.22,9.22,0,0,0-1.46.74l-3.52-5.52L471.22,0l8.35,28.26H451.15a11.92,11.92,0,0,0-6.72,2.07l-.13.09-5.95-11.61h-4.94l3.46,14.3Z"/>
        <path class="cls-2"
              d="M1643.81,161.2h91a18.87,18.87,0,0,0-15.22-9.2,15.18,15.18,0,0,0-17.37-12.91,17.61,17.61,0,0,0-32-1,16.65,16.65,0,0,0-1.88-.11,15.17,15.17,0,0,0-15.17,15.16c0,.51,0,1,.07,1.5A15.21,15.21,0,0,0,1643.81,161.2Z"/>
        <path class="cls-2"
              d="M228.75,97.6h87.78a18.22,18.22,0,0,0-14.69-8.88,14.65,14.65,0,0,0-14.5-12.63,15.21,15.21,0,0,0-2.26.17,17,17,0,0,0-30.88-.93,13.57,13.57,0,0,0-1.82-.12,14.65,14.65,0,0,0-14.64,14.64c0,.49,0,1,.07,1.45A14.65,14.65,0,0,0,228.75,97.6Z"/>
        <path class="cls-2"
              d="M1466.33,80.07h91.85a19,19,0,0,0-15.37-9.3,15.32,15.32,0,0,0-15.17-13.22,16.73,16.73,0,0,0-2.37.18,17.78,17.78,0,0,0-32.31-1,14.8,14.8,0,0,0-1.9-.12A15.32,15.32,0,0,0,1475.74,72a15.11,15.11,0,0,0,.08,1.51A15.31,15.31,0,0,0,1466.33,80.07Z"/>
        <path class="cls-2"
              d="M801.5,161.62c-6,6.08-46.12,10.42-68.23,12.4a146.16,146.16,0,0,1-15.09.57c-22.19-.3-62.56-1.58-69-7.2l8,18.35,5.73-.22.13,3.55,17.25-.66.35,9.29-3.16.12.15,4-9.68.37.3,8,12.85-.49L684.3,294l10.57-.4-3.2-84.28,70.66-2.68,3.2,84.28,10.56-.4-3.19-84.28,12.84-.49-.3-8-9.69.37-.15-4-3.16.12-.35-9.29,17.25-.66-.14-3.54,5.72-.21Zm-39.63,33-3.15.12.15,4-64.34,2.44-.15-4-3.16.12-.36-9.29,70.66-2.68Z"/>
        <path class="cls-2"
              d="M1154.91,280.27l.15-23.18h0v-1.16l1,0,.09-3.19-1.07,0,.14-22.14,1,0,.09-3.19-1.1,0,.13-19.84,3.29.09.07-2.44-1.1,0h0l.27-10.16,1.08,0,.06-2.44-.78,0c0-.71.43-7.84-6.78-10h0l-.43-1.21-.76,0v-.47a1,1,0,0,0,.6-.86.93.93,0,0,0-.62-.9v-.55a.69.69,0,0,0,0-1.28v-.43h-.43l0,.42a.71.71,0,0,0-.47.64.68.68,0,0,0,.39.64l0,.55a.94.94,0,0,0-.11,1.76l0,.46-.76,0-.5,1.19h0c-7.31,1.8-7.33,8.94-7.31,9.65l-.9,0-.06,2.44,1.39,0-.28,10.16h0l-1.43,0-.07,2.44,3.3.09-.06,1.27h0l-.89,18.55-1.1,0-.08,3.19,1,0,0,1h0l-1,21.13-1.07,0-.09,3.2,1,0-1.17,24.32-12.47-.34.1-14.62h0v-.8l.69,0,.06-2.21-.73,0,.09-14.64h0v-.68l.72,0,.06-2.2-.76,0,.08-12.84h0v-.88l2.28.06,0-1.68-.75,0h0l.19-7,.74,0,0-1.69-.55,0a6.62,6.62,0,0,0-4.68-6.93h0l-.3-.84H1124v-.33a.65.65,0,0,0,.42-.59.64.64,0,0,0-.43-.62v-.39a.44.44,0,0,0,.3-.42.47.47,0,0,0-.3-.46v-.29h-.3l0,.29a.46.46,0,0,0-.33.44.46.46,0,0,0,.27.44l0,.39a.62.62,0,0,0-.46.6.65.65,0,0,0,.38.61l0,.32h-.52l-.35.82h0a6.63,6.63,0,0,0-5.06,6.67l-.62,0,0,1.69,1,0-.19,7h0l-1,0,0,1.69,2.28.06-.66,13.71-.76,0-.06,2.21h.72l-.74,15.3-.74,0-.06,2.21.69,0,0,.8h0l-.71,14.6-7.77-.21,1.27-46.75-15.89-.43.14-5.05-3.46-.09.36-13.08h.65l0-1.77-.81,0c.08-1,.57-10.84-9.37-13.86h.06l-.6-1.68-1,0v-.65a1.28,1.28,0,0,0,.84-1.18,1.3,1.3,0,0,0-.86-1.25v-.76a1,1,0,0,0,.6-.86,1,1,0,0,0-.61-.91v-.59h-.6l0,.58a1,1,0,0,0-.12,1.77l0,.76a1.3,1.3,0,0,0-.15,2.43l0,.65-1,0-.69,1.64h0c-10.08,2.47-10.13,12.31-10.1,13.33l-.8,0,0,1.77.65,0-.35,13.08-2.47-.07h0l.23-8.41h-.14l0,0s2.64-25.09-21.77-32.55h.07l-1.42-3.91-2.43-.07,0-1.51a3,3,0,0,0,0-5.69V172a2.22,2.22,0,0,0,0-4.14v-1.36l-1.39,0-.08,1.36A2.22,2.22,0,0,0,1037,172l-.12,1.76a3,3,0,0,0-.36,5.68l-.09,1.51-2.44-.07-1.62,3.83h.07C1007.68,190.82,1009,216,1009,216l0,0h-.14l-.23,8.41-2.46-.06.35-13.09.65,0,.05-1.77-.79,0c.08-1,.57-10.84-9.37-13.87h.06L996.5,194l-1,0v-.65a1.3,1.3,0,0,0,.84-1.18,1.31,1.31,0,0,0-.86-1.25v-.76a1,1,0,0,0,.6-.86,1,1,0,0,0-.61-.91v-.59l-.59,0,0,.59a1,1,0,0,0-.11,1.77l0,.76a1.29,1.29,0,0,0-.15,2.42l0,.65-1,0-.69,1.64h.05c-10.09,2.48-10.13,12.31-10.1,13.33l-.81,0-.05,1.77.65,0-.36,13.08-3.45-.09h0l-.05,1.88h0l-.08,3.16-15.89-.43L961.3,275l-7.78-.21.1-15.42.7,0,.06-2.21-.74,0,.1-15.31.71,0,.06-2.21-.76,0,.09-12.85v-.87l2.28.06,0-1.69-1,0h0l.19-7,1,0,0-1.69h-.62c0-.49.3-5.42-4.69-6.94h0l-.3-.84h-.53v-.33a.64.64,0,0,0,.42-.59.64.64,0,0,0-.43-.62v-.38a.48.48,0,0,0,0-.89v-.29H950l0,.29a.48.48,0,0,0-.05.89l0,.38a.65.65,0,0,0-.08,1.21l0,.32h-.52l-.35.82h0a6.61,6.61,0,0,0-5.05,6.67h-.55l0,1.68.74,0-.2,7h0l-.77,0,0,1.68,2.28.06,0,.79v.09l-.61,12.83-.76,0-.06,2.21.71,0,0,.68-.71,14.61-.74,0-.06,2.21.7,0,0,.8-.7,14.6-12.47-.34.16-24.34,1,0,.09-3.19-1.07,0,.13-21.16v-1l1,0,.09-3.19-1.1,0,.12-18.57v-1.27l3.3.09.07-2.44-1.4,0h0l.27-10.16,1.39,0,.07-2.43-.9,0c.06-.7.43-7.83-6.77-10h0l-.44-1.21-.75,0v-.47a.93.93,0,0,0,.61-.85,1,1,0,0,0-.62-.91v-.55a.66.66,0,0,0,.43-.62.68.68,0,0,0-.44-.66v-.42h-.43l0,.42a.69.69,0,0,0-.08,1.28l0,.55a.92.92,0,0,0-.67.87.94.94,0,0,0,.55.88l0,.47-.75,0-.5,1.19h0c-7.32,1.79-7.33,8.94-7.31,9.64l-.79,0-.07,2.44,1.08,0-.28,10.16h0l-1.08,0L915.4,201l3.29.09-1,19.82-1.1,0-.08,3.19,1,0-.05,1-1,21.13-1.07,0-.08,3.19,1,0-.06,1.16-1.11,23.16-8.64-.24-.43,15.57,257,7,.43-15.57Zm-2.13-81.09a2.05,2.05,0,1,1,4.1.11l-.09,3.16-4.09-.11Zm-5.17-.15a2.05,2.05,0,0,1,4.1.12l-.09,3.16-4.09-.11Zm-5.26-.14a2.05,2.05,0,0,1,4.1.11l-.09,3.17-4.09-.11Zm-16.71,26a1.42,1.42,0,1,1,2.83.07l-.06,2.19-2.83-.07Zm-3.57-.1a1.41,1.41,0,1,1,2.82.08l-.06,2.19-2.82-.08Zm-3.7,2.09.06-2.19a1.42,1.42,0,1,1,2.83.08l-.06,2.19Zm-166.54-6.74a1.42,1.42,0,0,1,2.83.08l-.06,2.19-2.83-.07Zm-3.64-.1a1.42,1.42,0,0,1,2.83.08l-.06,2.19-2.83-.07Zm-3.64,2.1.06-2.19a1.43,1.43,0,0,1,1.46-1.38,1.42,1.42,0,0,1,1.38,1.45l-.06,2.2ZM928.08,193a2,2,0,1,1,4.09.12l-.08,3.16-4.1-.11Zm-5.26-.14a2,2,0,1,1,4.09.11l-.08,3.17-4.1-.11Zm-5.26,3,.09-3.17a2,2,0,1,1,4.09.11l-.08,3.17ZM1096.82,243a5.14,5.14,0,0,1,10.28.28l-.23,8.47-10.28-.28Zm-.66,24.47a5.14,5.14,0,1,1,10.27.28l-.23,8.47-10.27-.28Zm-10.51,10.89-14.46-.4.31-11.31a7.23,7.23,0,0,1,14.46.39ZM1084.42,219a2.43,2.43,0,1,1,4.85.13l-.13,4.65-4.84-.13Zm-7.85-.22a2.44,2.44,0,0,1,.76-1.69,2.38,2.38,0,0,1,1.73-.66,2.43,2.43,0,0,1,2.36,2.49l-.13,4.65-4.85-.14Zm3.12,13.09a7.23,7.23,0,0,1,7,7.43l-.32,11.92-14.47-.4.33-11.92A7.23,7.23,0,0,1,1079.69,231.9Zm-10.76-13.29a2.43,2.43,0,1,1,4.85.13l-.13,4.65-4.85-.13Zm-32.88,22a13.64,13.64,0,0,1,13.27,14l-.62,22.76-27.3-.75.62-22.75A13.67,13.67,0,0,1,1036.05,240.6Zm-51.6,35,.31-11.31a7.23,7.23,0,1,1,14.46.4L998.91,276Zm.74-27.14.33-11.92a7.23,7.23,0,1,1,14.46.4l-.32,11.92Zm14.38-31.77a2.42,2.42,0,0,1,2.49-2.35,2.37,2.37,0,0,1,1.69.75,2.41,2.41,0,0,1,.66,1.74l-.12,4.65-4.85-.14Zm-7.65-.2a2.43,2.43,0,1,1,4.85.13l-.13,4.65-4.84-.14Zm-7.85-.22a2.43,2.43,0,0,1,2.49-2.36,2.44,2.44,0,0,1,2.36,2.49l-.13,4.65-4.85-.13ZM965,239.44a5.14,5.14,0,1,1,10.28.28l-.24,8.46-10.27-.28Zm-.67,24.46a5.14,5.14,0,1,1,10.28.28l-.23,8.47-10.28-.28Z"/>
        <path class="cls-2"
              d="M1482.47,206.93l-.31-3.67,1.9-2.55-.81-2-9-5.75-4.73,6.21s-5.63-6.78-5.93-9.28-1.3-8.08-1.3-8.08l-5.17-4.08h0l1.07-17.08.86.09.61-2.12h0l8.76-7-9.33,3a7.1,7.1,0,0,0-.78-.69c.1.08,0,0,0,0l4.46-9.23-7.41,7a20.24,20.24,0,0,0-2-.89l-.78-9.46-2.62,9.14s-1.06.17-1.61.33l-5.74-8.16,2.45,9.56-1.17.72-7-3.95.25-2.54-1.48-15,.75-7.56.05-.45s-1.21-1.62-2.1-2.7l.21-2.11,1.45.15.35-3.57.65.06,1.34-4-2.54-.25.28-2.8c1.71-.81,2.48-3.4,2.78-4.81a9,9,0,0,0,.2-1.46c.19-6.13-6.77-11.75-6.77-11.75l-1.12,11.31-.85-3.37c-3.81,7.93,1.09,9.61,1.09,9.61v0l-.27,2.79-2.39-.24.53,4.17.64.07-.35,3.57,1.45.14-.24,2.35-2.7-.27a1.06,1.06,0,0,0-1.11.77.76.76,0,0,0,0,.16h0a1,1,0,0,0,.71,1.09.79.79,0,0,0,.22,0l.26,0a1,1,0,0,0-.75.59h0a.88.88,0,0,0,0,.15,1,1,0,0,0,.9,1.32l.61.06a1,1,0,0,0-.87.57,1.22,1.22,0,0,0-.07.17,1.29,1.29,0,0,0,0,.19,1,1,0,0,0,.15.63,1,1,0,0,0,.79.51l.56.06a1,1,0,0,0-1,.58.59.59,0,0,0-.06.14v0a1.16,1.16,0,0,0,0,.18h0a1,1,0,0,0,.94,1.14l.76.08-.12,1.18-.19,2-.12,1.2a1.76,1.76,0,0,0,1,1.76l0,0-1.55,14.3,1.53,2.58-.47,4.68-.27.41c-1.36,2.12-7.36,11.8-4.79,14.76l.15.16,2.75,1.74h0l-.68,3,2.06,2.06-1,5.59,1.61,1.28-2,4.6,2.69,5.52-6.14,10.77,3.26,5.81-2.58,10.1-1.14,1.8,1.42,2.2-7.75,19.32,1,12.17-2.84,7.23-8.3-.83L1402.8,310l60.17,6,4.54-45.69-7.94-.78,1.11-11.06,3.79-2.51-.13-6.39,2.09-3.76-2.27-28.83,3.07,2.23,2.7-.46,5.13-5.62s3-.52,3.52-1.38,3.92-4.46,3.92-4.46l0-.29Zm-67.12,97-6.85-.68,3.15-31.61,6.85.69Zm21.41-154.28,5.43,6.46.24,3,.87.08-1.42,8.41-3.28-4.71.35-2.16-.72-3.78-2-2.21Zm-7.32,155.68-6.85-.68,3.15-31.6,6.84.68Zm14.08,1.4-6.84-.68,3.14-31.6,6.85.68Zm17.24-30.2-3.15,31.6-6.85-.68,3.15-31.6Z"/>
        <path class="cls-2"
              d="M1368.67,299.61c-.31-.63-1.32-16.61-18.09-16.77a25.69,25.69,0,0,0,5-8.38,32.44,32.44,0,0,0,1.69-6.65,208,208,0,0,0,2-39.48l1.75-7.82,4.42.07L1362.64,204l.73-2.64,1-.14c-.29-5.24-1.41-15.05-1.61-15.8a17.35,17.35,0,0,0-6-8.9,9.33,9.33,0,0,0,1.16-3.94c-3.46.38-8.11-1.07-10.6-2l-.35-.15,0,0c-.45-.19-.89-.36-1.33-.51h0c-.66-.22-1.32-.41-2-.56h0c-6.37-1.44-12.61.49-15.52,5.2a5.31,5.31,0,0,0-4.69,2.07,4.07,4.07,0,0,0-2,2.84,26.91,26.91,0,0,0-7,.82,4.23,4.23,0,0,0-3.28,3.53,3.83,3.83,0,0,0,1.13,3,8.24,8.24,0,0,0,0,2.93c0,.06,0,.13,0,.2a2.78,2.78,0,0,0,3.83,1.83,1.82,1.82,0,0,0,.82,2,.1.1,0,0,0,.13,0,12.68,12.68,0,0,1,1.07-1.45,2.94,2.94,0,0,1,1.85-1c1.39-.16,4-.26,5.26,1.09a3.35,3.35,0,0,1,.88,2.44,3.1,3.1,0,0,1-.62,1.59,7.35,7.35,0,0,1-5.85,1.39c-.85-.27-.91-1.35-1.12-2a.3.3,0,0,0-.47-.13,4.77,4.77,0,0,0-1.29,2.73,2.11,2.11,0,0,0-1,1,4.35,4.35,0,0,0-.42,1.52,4.73,4.73,0,0,0,3.25,4.74s-3.19,11.22-2.94,12.24c0,0-6.19-5.24-9.3,0,0,0,11,15.67,9,27.87-1.39,8.41-8.12,23.41-3.78,33.85-17-3-20.75,12.91-21.16,13.48l-2.42-.2-.77,9.38,82.26,6.78.77-9.38Zm-46.33-119.92a5.49,5.49,0,0,1,7.11-.19S1325.73,183.42,1322.34,179.69Zm4.37,87.08a3.68,3.68,0,0,1-1.7.18h.37a3.63,3.63,0,0,1-1-.37,4,4,0,0,1,1.8-7.46,4,4,0,0,1,2.91,2.61A3.93,3.93,0,0,1,1326.71,266.77Z"/>
        <path class="cls-2"
              d="M1749.47,334.2l-10.26-11-.64-.05-8-.64.52-6.49-13.42-8.48.31-3.88,14-12.94s-17.38-4.37-44.83,4.16l2,7.72-1.07-.45-6.6,1.51,5.64-8.78a93.33,93.33,0,0,0-15-5.38l8.68-17.32c-33.64-9.49-53.86,6.2-53.86,6.2l-8,24.69-17.37-5.91L1627,278.42s-10.5-38-57.77-48.43c0,0,3.22,11.93,6.17,28v0s-14.6-8.71-30.32-10l1,16.27c-18.48-6.81-33-4.17-33-4.17l7.65,26.12-9.17.84-9.88,2.74,3.36,3.82-.54,6.68-2.33-1.55-2.1-.16-.48,6.06h0l-4.1-.33h0l-.76,9.51-9-.72-.63,7.93,269.42,21.55.64-7.92ZM1577.26,269l.12.8Zm.6,4.09.06.38Zm.45,3.34c0,.29.08.57.11.85C1578.39,277,1578.35,276.75,1578.31,276.46Zm.47,3.77c0,.16,0,.32,0,.48C1578.81,280.55,1578.79,280.39,1578.78,280.23Zm.42,3.94.06.54Zm.32,3.46c0,.26,0,.51.07.77C1579.57,288.14,1579.55,287.89,1579.52,287.63Zm96.32,25.28h-.17l.27-.43Zm-2.78-.22-12-1,6.45-12.88Zm-96.91-50.49c0,.11,0,.22,0,.33a91.28,91.28,0,0,0-2.14,24.12l-13.15-2.31Zm.72,4.33c0-.29-.1-.59-.14-.89C1576.77,265.94,1576.82,266.24,1576.87,266.53Zm-30.54,1.87.05.89a50.85,50.85,0,0,0-3.26,11.9c-1.53-.36-6.31-1.5-9.17-2.16A86.33,86.33,0,0,1,1546.33,268.4Z"/>
        <path class="cls-2"
              d="M900.2,230.55a12.93,12.93,0,0,1-4.86,7.78L879,238.16l-.83-.28.13-12.18v-1.57h-.22c13.08-2.76,19.16-6.93,19.16-6.93v-1.14h0c-.21,0-9.15-1.43-18.94-3.82h.11l.13-12.46,0-1.57h-.23c13.09-2.76,19.16-6.93,19.16-6.93v-1.14h0c-.21,0-9.35-1.47-19.26-3.91h.44l.13-12.46V172.2h-.22c13.08-2.76,19.16-6.94,19.16-6.94v-1.13h0c-.21,0-9.5-1.5-19.51-4H879l.13-12.46,0-1.57h-.22c13.08-2.76,19.15-6.94,19.15-6.94v-1.13h0c-.37-.06-28.39-4.46-39.65-11l0-3.47h-1l0-2.72a2.91,2.91,0,0,0-2.23-2.85l0-1.62c1.37-.08,2.4-.49,2.41-1s-1-.92-2.39-1v-1.63c1.37-.09,2.41-.49,2.41-1s-1-.92-2.39-1l0-1.64c1.37-.08,2.41-.48,2.41-1s-1-.92-2.39-1l0-1.79c1.37-.09,2.41-.49,2.41-1s-1-.92-2.39-1v-1.17a2.54,2.54,0,1,0-1.33-.07l0,1.24c-1.31.1-2.28.49-2.29,1s1,.9,2.27,1l0,1.82c-1.31.1-2.28.49-2.29,1s1,.89,2.27,1v1.66c-1.31.1-2.29.49-2.29,1s1,.89,2.27,1l0,1.66c-1.31.1-2.29.49-2.29,1s1,.9,2.27,1l0,1.66a2.89,2.89,0,0,0-2.22,2.78l0,2.72h-1l0,3.46h-.05c-11.36,6.34-39.52,10.17-39.89,10.23h0l0,1.13s6,4.34,19.17,7.36H830l0,1.54-.12,12.46h.25c-10.06,2.27-19.38,3.54-19.6,3.57h0v1.14s6,4.33,19.16,7.35h.07v1.54l-.13,12.46c-10,2.23-19.13,3.48-19.34,3.51h0v1.14s6,4.33,19.17,7.35h.07l0,1.53-.12,12.38c-10,2.24-19.13,3.48-19.35,3.51h0v1.14s6,4.33,19.16,7.36h.07v1.54l-.13,12.45-16.32-.16a12.9,12.9,0,0,1-4.7-7.88s-2,15.3,3.68,20.25l.23.2a2.83,2.83,0,0,0,.28.2l.35.23.22.14c.21.11.42.21.64.3l9.55.1,0,2.95-.29,28.56,0,4.38,4.9,0,.28-27.44,9,.09-.28,27.4,4.2,0,.28-27.37,9,.09-.28,27.33,4.2,0,.28-27.31,9,.09L863,287.14l4.21,0,.27-27.24,9.05.09-.28,27.2,6.34,0,0-4.08.29-28.57,0-3,11.37.12c.22-.09.43-.19.64-.3l.23-.13.36-.22.28-.2.23-.18C901.93,245.89,900.2,230.55,900.2,230.55Zm-63.27,5.12-5.2-.06.08-8.1,5.2.05Zm.26-25.93-5.2-.05.08-8.1,5.2,0Zm.27-26-5.2-.05.08-8.11,5.2.06Zm.26-26.06-5.2-.05.08-8.11,5.2.06Zm8.74,78.08-5.2,0,.08-8.1,5.2,0Zm.26-25.92-5.2-.05.08-8.11,5.2.06Zm.26-26-5.19-.05.08-8.11,5.2,0Zm.27-26.06-5.2-.05.08-8.11,5.2,0ZM856,235.86l-5.2-.05.09-8.11,5.2.06Zm.27-25.92-5.2-.06.08-8.1,5.2.05Zm.26-26-5.2-.06.09-8.1,5.2.05Zm.27-26.06-5.2-.06.08-8.1,5.2.05ZM865.51,236l-5.2-.05.09-8.11,5.2,0Zm.27-25.93-5.2-.05.08-8.1,5.2.05Zm.26-26-5.2-.05.09-8.1,5.2.05Zm.27-26.06-5.2-.05.08-8.11,5.2.06ZM875,236.06l-5.2-.06.09-8.1,5.2,0Zm.27-25.93-5.2,0,.08-8.11,5.2.06Zm.26-26-5.2,0,.08-8.11,5.2.06Zm.27-26.06-5.2,0,.08-8.11,5.2.05Z"/>
        <path class="cls-2"
              d="M441.11,134.69l-5.49-.18.26,0,.67-20.88,1,0a1.6,1.6,0,0,0,1.65-1.54V112a1.59,1.59,0,0,0-1.54-1.64L395.78,109a1.6,1.6,0,0,0-1.65,1.54v.09a1.59,1.59,0,0,0,1.54,1.64l1,0L396,133.23l.3,0-5.53-.18a1.93,1.93,0,0,0-2,1.86v.1a1.91,1.91,0,0,0,1.86,2l1.2,0-.79,25.07-1.21,0a1.93,1.93,0,0,0-2,1.86v.1a1.91,1.91,0,0,0,1.86,2l1.2,0-.79,25.1.12,0-1.33-.05a1.93,1.93,0,0,0-2,1.86v.1a1.93,1.93,0,0,0,1.85,2l1.21,0-.79,25.06-1.21,0a1.93,1.93,0,0,0-2,1.86v.1a1.93,1.93,0,0,0,1.85,2l1.21,0-.8,25.09.24,0-3.42-.11a2.07,2.07,0,0,0-2.13,2v.11a2.06,2.06,0,0,0,2,2.13l1.3.21-1.31,41L381,295l1.35,14.89,60.1-5.45-1.35-14.89-4.28.39L438,255.44l1.32-.35a2.07,2.07,0,0,0,2.13-2V253a2.07,2.07,0,0,0-2-2.13l-3.33-.1.15,0,.79-25.09,1.21,0a1.91,1.91,0,0,0,2-1.85v-.1a1.91,1.91,0,0,0-1.85-2l-1.21,0,.79-25.06,1.21,0a1.91,1.91,0,0,0,2-1.85v-.1a1.91,1.91,0,0,0-1.85-2l-1.31,0h.1l.8-25.1,1.2,0a1.91,1.91,0,0,0,2-1.85v-.11a1.9,1.9,0,0,0-1.85-2l-1.21,0,.8-25.07,1.2,0a1.91,1.91,0,0,0,2-1.85v-.11A1.9,1.9,0,0,0,441.11,134.69Zm-15-13a2.64,2.64,0,0,1,2.71-2.55l.37,0a2.61,2.61,0,0,1,2.54,2.7l-.4,12.52-5.61-.18Zm-1,20.07a2.78,2.78,0,0,1,2.69,2.87l-.59,18.7-5.55-.17.59-18.71A2.79,2.79,0,0,1,425.05,141.73Zm-14.64,79.14.59-18.7a2.78,2.78,0,1,1,5.55.17L416,221.05Zm5.22,10.47L415,250.05l-5.55-.18.59-18.7a2.78,2.78,0,1,1,5.55.17Zm3.8.12a2.78,2.78,0,0,1,5.55.18l-.6,18.7-5.54-.17Zm.33-10.29.59-18.71a2.78,2.78,0,0,1,5.55.18l-.6,18.7Zm.92-29,.59-18.71a2.78,2.78,0,1,1,5.55.18l-.59,18.7Zm-7.14-70.87a2.63,2.63,0,0,1,2.71-2.54h.37a2.63,2.63,0,0,1,2.54,2.71l-.4,12.51-5.62-.18Zm-.69,22.86a2.78,2.78,0,0,1,5.55.18l-.6,18.7-5.55-.17Zm1.94,26.32a2.79,2.79,0,0,1,2.69,2.86l-.6,18.7-5.55-.17.6-18.71A2.77,2.77,0,0,1,414.79,170.44ZM401,120.86a2.63,2.63,0,0,1,2.71-2.54h.37a2.63,2.63,0,0,1,2.54,2.71l-.39,12.51-5.62-.17Zm2.5,23a2.78,2.78,0,1,1,5.55.17l-.59,18.71-5.55-.18Zm1.94,26.31a2.77,2.77,0,0,1,2.69,2.86l-.59,18.71-5.55-.18.59-18.7A2.78,2.78,0,0,1,405.44,170.14Zm-11.28-26.61a2.78,2.78,0,1,1,5.55.18l-.6,18.7-5.55-.17Zm-.92,29a2.77,2.77,0,1,1,5.54.18l-.59,18.7-5.55-.17Zm10.36,55.65a2.79,2.79,0,0,1,2.69,2.87l-.59,18.7-5.55-.18.59-18.7A2.79,2.79,0,0,1,403.6,228.18Zm-11.28-26.61a2.77,2.77,0,0,1,5.54.18l-.59,18.7-5.55-.17Zm-.92,29a2.77,2.77,0,0,1,5.54.18l-.59,18.7-5.55-.17Zm6.27,31.69-1.07,33.47-5.78.53-.59,0,1.08-34.18a3.18,3.18,0,0,1,6.36.2Zm11.58.37-1,32.05-6.38.58,1-32.83a3.18,3.18,0,1,1,6.35.2Zm-8.18-42,.59-18.71a2.78,2.78,0,1,1,5.55.18l-.59,18.7ZM420.83,263l-1,30.62-6.38.58,1-31.4a3.18,3.18,0,1,1,6.35.2Zm11.58.37-.93,29.2-6.37.58.95-30a3.18,3.18,0,0,1,6.35.21Zm1.91-31.43-.59,18.7-5.55-.18.59-18.7a2.78,2.78,0,1,1,5.55.18Zm.92-29-.59,18.7-5.55-.18.59-18.7a2.78,2.78,0,1,1,5.55.18Zm.93-29.05-.6,18.71-5.55-.18.6-18.7a2.78,2.78,0,1,1,5.55.17Zm.92-29-.6,18.71-5.55-.18.6-18.7a2.78,2.78,0,1,1,5.55.17Z"/>
        <path class="cls-2"
              d="M199.84,293.94h0c-.52-.84-1-1.68-1.56-2.54h0c-2.29-3.77-4.66-7.77-7.06-12l2.34-.33-3.81-10.42-4.13.6c-3.94-7.37-7.92-15.3-11.81-23.73l-.62-1.39,1.77-.26-1.37-9.54,1.93-.27-.71-4.9-7.69,1.1a387,387,0,0,1-22.57-73.48l2.23-.32-1.2-8.35-1.12.16-1.24-3.7L140,145l-4.7-26.88-1.77.25,3.06,27.12-3.19.46-.15,3.9-1.12.16,1.2,8.36,2.24-.33a388,388,0,0,1-1,76.87L127,236l.7,4.9,1.93-.28,1.37,9.54,1.78-.26c-.07.47-.13.95-.2,1.42-1.36,9.23-2.95,18-4.66,26.19l-4.13.59L123,289.2l2.35-.34q-1.68,7.11-3.4,13.52c-.26,1-.51,1.92-.77,2.87h0C114,331.58,107,347.56,107,347.56l25.47-3.66c3.16-20.29,14-35.56,28.78-37.69l.13,0h0l.09,0h.09l.13,0c14.79-2.13,29.48,9.47,38.23,28.05l25.47-3.66S214.19,317.17,199.84,293.94ZM144,185.08c0-.33-.07-.66-.1-1,.06.33.11.65.18,1a435.28,435.28,0,0,0,11.51,46.84l-9.44,1.36A435.72,435.72,0,0,0,144,185.08Zm1.84,63L160.06,246l.48,1.45h0c3.83,11.43,7.12,20,8.73,24.14l-25.05,3.6C144.63,270.62,145.41,260.84,145.85,248.05Z"/>
        <path class="cls-2"
              d="M348.1,200.53l-1.05-8.87h0l1-3.65-.38-3.24-.22-1.89-3.25.39-.16-1.38-.16-1.38-9.13,1.08.17,1.38.16,1.37-2.17.26-.16-1.38-.16-1.38-9.13,1.08.17,1.38.16,1.38-2.17.25-.16-1.38-.16-1.37-9.13,1.07.17,1.38.16,1.38-2.17.26-.16-1.38-.16-1.38-9.12,1.08L301,187l.16,1.38-2.16.26-.17-1.38-.16-1.38-9.12,1.08.16,1.38.16,1.38-2.16.25-.17-1.38-.16-1.38-9.12,1.08.16,1.38.16,1.38-2.16.25-.16-1.37-.17-1.38L267,189.58l.16,1.38.16,1.38-2.16.26-.16-1.38-.17-1.38-9.12,1.08.16,1.38.17,1.37-2.17.26-.16-1.38-.16-1.38-9.13,1.08.16,1.38.17,1.38-2.17.25-.16-1.38-.16-1.37-9.13,1.07.17,1.38.16,1.38-4.32.51.23,1.88.38,3.25,1.81,3.31h0l1.05,8.88-7.24.85.23,1.94.37,3.19,2-.23.24,2.07,4.56,5.36v0l.36,3.06.22,1.85,1.29-.15,3.48,29.51-1.5.18.36,3,1.5-.18L245.82,327l39.77-4.69L278.23,260l2-.24-.35-3-1.95.23c-.66-10.49,6.26-19.75,15.84-20.88s18.46,6.26,20.26,16.61l-1.37.17.35,3,1.42-.17L321.76,318l39.77-4.7L354.17,251l2.07-.24-.36-3-2.07.24-3.48-29.51,2.17-.26-.21-1.85-.37-3.06v0l3.19-6.27-.25-2.08,3-.35-.38-3.2-.22-1.93Zm-6.54-6.16,3.4-.4.66,5.57-3.4.41Zm-7.63.9,3.4-.4.65,5.58-3.39.4Zm-7.63.9,3.39-.4.66,5.58-3.39.4Zm-7.63.9,3.39-.4.66,5.58-3.39.4ZM311,198l3.39-.4.66,5.58-3.39.4Zm-7.63.9,3.39-.4.66,5.58-3.4.4Zm-7.64.9,3.4-.4.66,5.58-3.4.4Zm-7.63.9,3.4-.4.66,5.58-3.4.4Zm-7.63.9,3.4-.4.66,5.58-3.4.4Zm-7.63.9,3.4-.4.65,5.58-3.39.4Zm-7.63.91,3.39-.4.66,5.57-3.39.41Zm-7.63.9,3.39-.4.66,5.58-3.39.4Zm-7.63.9,3.39-.4.66,5.58-3.39.4Zm-7.63.9,3.39-.4.66,5.58-3.4.4Zm-7.64.9,3.4-.4.66,5.58-3.4.4ZM274.66,317l-20,2.36-4-34.08a11.64,11.64,0,0,1,2-8.13,9.54,9.54,0,0,1,6.67-4.06c5.52-.65,10.56,3.75,11.28,9.83ZM270.38,254l-27.52,3.25-2.14-18.14,27.52-3.25ZM350.89,308l-19.95,2.36-4-34.08a11.68,11.68,0,0,1,2-8.14,9.56,9.56,0,0,1,6.67-4.05c5.51-.65,10.56,3.75,11.28,9.83ZM349,244.69l-27.53,3.25-2.14-18.14,27.52-3.25Z"/>
        <path class="cls-2"
              d="M1783.41,233.49l6.7.5-.82,10.87-5.19-.39-4.81,64h0l-2.7,35.86,42.1,3.19,2.43-32.16h0l5.09-67.78-5.19-.39.81-10.86,6.7.5,3.39-45.12-6.7-.5.7-9.23h0l-5.4-13.22h0l.79-10.44-7.14-24-1.13-.08-10.77,22.61h0l-.78,10.44h0l-7.31,12.26-.7,9.23-6.69-.5Zm9.56,15.92-1.62,21.53-5.16-.39,1.62-21.53Zm-11.6,84.82L1783,312.7l5.16.39-1.62,21.53Zm9.26.7,1.61-21.53,5.16.39-1.62,21.53Zm9.25.69,1.61-21.53,5.16.39L1805,336Zm9.25.7,1.62-21.53,5.16.39-1.62,21.53Zm10.4-26.58-38.35-2.88.11-1.52,38.36,2.89Zm-34.06-29.54,5.15.39L1789,302.12l-5.16-.39Zm9.25.69,5.16.39-1.62,21.53-5.16-.38Zm9.25.7,5.16.39-1.62,21.53-5.16-.39Zm9.25.69,5.16.39-1.62,21.53-5.16-.39Zm8.65-3.72-38.35-2.88.12-1.51,38.35,2.88Zm-24.81-28.84,5.16.39-1.62,21.53-5.16-.39Zm9.25.69,5.16.39-1.62,21.53-5.16-.39Zm14.41,1.09L1819.1,273l-5.15-.39,1.61-21.53Zm-2.47-92.05-.53,7.07-2.47-.19.53-7.06Zm-5.64-.42-.53,7.07-2.47-.19.53-7.06Zm-5.8-.44-.53,7.07-2.47-.19.53-7.06Zm21.36,36.4-2.87,38.14-38.15-2.86,2.87-38.15Z"/>
        <path class="cls-2"
              d="M1791,193.21l-2.71,36.12,36.13,2.72,2.71-36.13Zm15.7,32.84a13.46,13.46,0,1,1,14.43-12.42A13.47,13.47,0,0,1,1806.65,226.05Z"/>
        <path class="cls-2"
              d="M657.69,282.13c-.06-1.07-.13-2.15-.2-3.24-.46-7.2-1-14.85-1.41-20.21-.32-4.28-.54-7.12-.54-7.12-11.76-14.69-82.87-12.16-82.87-12.16l.18,3.39.11,2-16,.86-4.79-4.27-5.49.3-8.65.57-4.2-14.33-.6-11.3-3.83-3.91s-1.64,0-3.46,0l-4.64-9.57L518.4,198l-6.81-2.73c-39.4,12.83-41.54,30.18-41.54,30.18l1.06,19.84,1.18,22.05,1.12,20.89.83,15.64,6.11-.33-.42-7.87c-.12-2.29,1.22-4.24,3-4.33s3.3,1.7,3.42,4l.43,7.87,10.32-.55-.45-8.48c-.13-2.46,1.42-4.56,3.45-4.67s3.81,1.82,3.94,4.28l.45,8.47,9.35-.5-.48-9.08c-.14-2.63,1.62-4.88,3.92-5s4.3,1.93,4.44,4.57l.49,9.07,8.37-.44-.51-9.68a4.69,4.69,0,1,1,9.33-.5l.52,9.68,7.41-.4-.55-10.28a5.17,5.17,0,1,1,10.31-.55l.55,10.28,3.43-.18,5.24-.28-.58-10.89a6.18,6.18,0,0,1,12.32-.66l.58,10.89,4.21-.23,4.4-.23-.55-10.38c-.16-3,1.8-5.53,4.35-5.66S595.8,284,596,287l.55,10.38,7.18-.38-.52-9.78c-.15-2.8,1.61-5.2,3.93-5.32s4.32,2.07,4.47,4.87l.52,9.78,8.06-.43-.49-9.18c-.15-2.63,1.43-4.87,3.5-5s3.88,1.95,4,4.58l.49,9.17,5.58-.29,2.72-.15-.46-8.57c-.13-2.46,1.26-4.55,3.08-4.65s3.44,1.84,3.57,4.3l.46,8.57,8.4-.45-.42-8c-.12-2.29,1.07-4.23,2.66-4.31s3,1.71,3.11,4l.43,8,1.49-.08c0-.24,0-.48,0-.73l0-.77c0-.53,0-1.08-.07-1.65s0-1.17-.09-1.78C658,287,657.84,284.61,657.69,282.13ZM474.14,227.38l4.53-3.88.28,5.16-4.54,3.88Zm10.3,54.55-6.35,1.37-.43-8c-.12-2.28,1.22-4.23,3-4.32s3.3,1.7,3.42,4Zm-1.38-25.87-6.35,1.46-.43-8c-.12-2.29,1.22-4.23,3-4.33s3.3,1.7,3.43,4Zm6.68-38.86,4.34-2.68.28,5.15L490,222.36Zm1.4,26.63c-.13-2.46,1.42-4.56,3.45-4.67s3.8,1.81,3.93,4.27L499,252l-7.33,1.41Zm9.79,35.09-7.32,1.52-.46-8.57c-.13-2.46,1.42-4.56,3.45-4.67s3.8,1.82,3.94,4.28Zm6.45-71,4.37-2.15.85,4.9-5,2.4Zm11.21,68.88-8.33,1.11-.49-9.17c-.14-2.63,1.63-4.88,3.93-5s4.29,1.93,4.43,4.57Zm-1.52-28.44-8.32,1.34-.57-10.65c-.14-2.63,1.63-4.88,3.93-5s4.29,1.93,4.44,4.57Zm20.33,27.05-9.34.5-.52-9.78a4.69,4.69,0,1,1,9.33-.49Zm17.71-.95L544.8,275l-.55-10.38a5.17,5.17,0,1,1,10.31-.55Zm23.29-1.24-12.33.66-.58-11a6.18,6.18,0,0,1,12.32-.66Zm19.17.32-10.34-.17L586.67,263a5.17,5.17,0,1,1,10.31-.55Zm2-23.6-4.48-.13-.28-5.15,4.48.12Zm13.69,23.71-9.38-.28-.52-9.78a4.69,4.69,0,1,1,9.33-.5Zm2.3-23-4.48-.33-.27-5,4.5.49Zm12.84,23.1-8.41-.64-.5-9.17c-.14-2.63,1.63-4.88,3.93-5s4.3,1.93,4.44,4.56Zm.18-21-.27-5.15,4.75.82.28,5.15Zm13.28,21.69-7.44-.64-.41-7.54c-.13-2.46,1.43-4.56,3.46-4.67s3.8,1.82,3.93,4.27Zm2.47-23.91,4.38,1.22L649,257l-4.37-1.22Zm10.54,24.59-6.47-.63-.37-7c-.12-2.28,1.22-4.23,3-4.33s3.31,1.7,3.43,4Z"/>
        <path class="cls-2"
              d="M1262.07,268.63h0v0a186.43,186.43,0,0,0,1.75-19.84v-.09h0c.08-2.27.13-4.56.13-6.87h0v0a239.77,239.77,0,0,0-3.35-40.43h0l-.09-.52q-1.14-6.62-2.62-13h0c0-.09-.05-.19-.07-.28-.49-2.09-1-4.16-1.54-6.19a.83.83,0,0,1,0-.15h0c-1.21-4.51-2.55-8.89-4-13.11-.06-.16-.11-.32-.17-.49h0q-1.26-3.57-2.64-7h0l-.06-.13c-.42-1-.84-2-1.27-3,0-.1-.09-.19-.13-.29-.4-.93-.82-1.85-1.24-2.76l-.21-.45h0a101.85,101.85,0,0,0-8.38-14.8l-13.78-.48c-6.69-16.49-14.42-30.31-22.15-39.2l1.11-31.59-7.49,8.91-7.68,218.13,7.17.26h0l59.21,2.08a104.65,104.65,0,0,0,5.68-18.29c0-.11,0-.23.07-.34C1261,275.37,1261.58,272,1262.07,268.63Zm-9.74,6.53-8.18-.28q.36-3.45.62-6.86l8.79.31C1253.2,270.66,1252.79,272.93,1252.33,275.16ZM1230,176.63c.3,1.18.59,2.4.89,3.63l-30.2-1.06.25-6.87,28.2,1C1229.47,174.42,1229.76,175.52,1230,176.63Zm8.78,84.61-40.92-1.44.24-6.88,40.94,1.44Q1239,257.78,1238.82,261.24Zm6.63-6.65,9.59.34c-.17,2.32-.39,4.6-.64,6.85l-9.21-.32Q1245.37,258,1245.45,254.59Zm-47.08-8.23.24-6.87,40.45,1.42q.09,3.41.09,6.89Zm.47-13.44.24-6.87,39.29,1.38q.26,3.4.44,6.9Zm45.94-5.26,10.36.36q.19,3.47.29,6.9l-10.23-.36Q1245,231.07,1244.78,227.66Zm-.56-6.58q-.33-3.51-.74-6.91l10.48.37q.4,3.45.71,6.91Zm-6.42-.23-38.48-1.35.24-6.87L1237,214Q1237.45,217.34,1237.8,220.85Zm-38-14.79.24-6.87,35,1.23q.59,3.39,1.09,6.92Zm.47-13.43.24-6.88,31.94,1.13q.74,3.36,1.42,6.93Zm1-26.87.24-6.87,23.76.84q1.1,3.44,2.12,7Zm.47-13.43.21-6,18.92.67q1.13,3,2.19,6.07Zm-4,114,40.72,1.43c-.17,2.28-.38,4.56-.62,6.86l-40.35-1.42Zm57.7-18-9.84-.35q0-3.48-.09-6.88l10.07.35Q1255.51,245,1255.37,248.37Zm-2.27-40.43-10.48-.37c-.34-2.35-.69-4.66-1.07-6.92L1252,201C1252.4,203.31,1252.76,205.62,1253.1,207.94Zm-2.39-13.54-10.32-.36c-.45-2.37-.91-4.69-1.38-6.93l10.14.36C1249.71,189.75,1250.22,192.07,1250.71,194.4Zm-13.17-13.9q-.66-2.81-1.32-5.43l-.39-1.51,9.46.33q1.11,3.41,2.1,7Zm5.4-13.27-8.91-.31q-1-3.51-2.06-6.95l8.11.28Q1241.58,163.64,1242.94,167.23Zm-9.5-19.78c1.19,1.94,2.34,4,3.44,6.12l-7.07-.25q-1-3.07-2.13-6.07Zm-16-9.07-16.53-.58,1-28.48C1207.26,116.91,1212.56,126.89,1217.39,138.38Zm-20.2,141.41,39.79,1.4q-.46,3.42-1,6.87l-39-1.38Zm45.19,8.49q.55-3.45,1-6.87l7.43.26c-.62,2.36-1.3,4.65-2,6.84Z"/>
    </g>
    <path class="cls-3"
          d="M1920,345.61c-199.85-17.73-398.94-38.57-599.87-52.8C936.8,265.65,537.94,272,183.91,319.69q-27.37,3.69-54.38,7.7C85.32,334,42,342.4,0,351.8v82.58H1920Z"/>
</svg>