<svg width="323" height="296" viewBox="0 0 323 296" fill="none" xmlns="http://www.w3.org/2000/svg">
<mask id="mask0_1362_3363" style="mask-type:alpha" maskUnits="userSpaceOnUse" x="0" y="0" width="323" height="296">
<rect width="323" height="296" fill="#D9D9D9"/>
</mask>
<g mask="url(#mask0_1362_3363)">
<path d="M102.123 246.722C93.708 253.295 83.7744 257.743 72.595 259.942C72.2811 260.002 71.9602 259.918 71.7231 259.716L65.3851 254.339C65.1028 254.102 64.9695 253.74 65.029 253.376C65.071 253.115 65.2136 252.88 65.4159 252.722C65.4925 252.662 65.5775 252.613 65.6712 252.575C65.791 252.526 78.1065 247.6 90.612 237.833C103.861 227.486 112.373 215.785 115.915 203.062C115.972 202.842 116.108 202.656 116.278 202.523C116.409 202.421 116.566 202.351 116.737 202.323C117.132 202.253 117.532 202.416 117.763 202.746L124.917 212.784C125.094 213.034 125.158 213.353 125.077 213.654C124.872 214.43 119.911 232.83 102.112 246.731L102.123 246.722Z" fill="#740000"/>
<path d="M116.929 203.345L124.078 213.378C124.078 213.378 119.206 232.052 101.479 245.897C94.1626 251.611 84.6541 256.501 72.3895 258.923L66.0515 253.546C66.0515 253.546 78.4687 248.638 91.253 238.653C101.828 230.394 112.663 218.657 116.924 203.339M115.643 201.699L115.621 201.716C115.26 201.998 115.02 202.388 114.914 202.805C111.43 215.298 103.041 226.806 89.9718 237.013C77.5976 246.677 65.4061 251.559 65.2863 251.609C65.0991 251.684 64.9289 251.782 64.7703 251.906C64.3657 252.222 64.0861 252.687 63.9977 253.205C63.8744 253.926 64.1454 254.657 64.7055 255.126L71.0436 260.502C71.5276 260.908 72.1693 261.075 72.7915 260.959C84.1285 258.725 94.2189 254.208 102.766 247.533C120.837 233.419 125.884 214.688 126.095 213.898C126.253 213.3 126.138 212.668 125.779 212.164L118.676 202.2C118.642 202.157 118.609 202.103 118.57 202.054C117.861 201.146 116.556 200.986 115.654 201.69L115.643 201.699Z" fill="black"/>
<path d="M128.079 260.828C114.781 271.214 99.1544 275.97 81.6461 274.969C81.3321 274.95 81.0403 274.791 80.8548 274.531L76.0589 267.747C75.8435 267.449 75.8068 267.064 75.9571 266.727C76.0261 266.567 76.1372 266.427 76.2684 266.325C76.416 266.21 76.5881 266.137 76.7791 266.111C77.045 266.079 103.391 262.617 123.055 247.26C129.277 242.4 134.23 236.815 137.774 230.667C137.842 230.552 137.929 230.449 138.033 230.368C138.235 230.21 138.492 230.133 138.752 230.15C139.153 230.18 139.497 230.439 139.639 230.813L144.068 242.311C144.176 242.596 144.156 242.92 144.004 243.188C143.795 243.562 138.799 252.438 128.076 260.813L128.079 260.828Z" fill="#BA8616"/>
<path d="M76.8995 267.144C76.8995 267.144 103.557 263.808 123.69 248.084C129.492 243.553 134.747 237.996 138.668 231.192L143.097 242.691C143.097 242.691 138.119 251.658 127.434 260.002C117.411 267.83 102.365 275.11 81.6954 273.927L76.8995 267.144ZM75.6129 265.508C75.3449 265.717 75.1283 265.992 74.9901 266.311C74.6951 266.982 74.7728 267.757 75.1938 268.353L79.9897 275.136C80.3564 275.651 80.9346 275.974 81.5724 276.013C99.1001 277.016 115.399 272.051 128.714 261.653C139.607 253.146 144.704 244.094 144.914 243.71C145.213 243.168 145.257 242.526 145.036 241.95L140.637 230.535C140.565 230.318 140.453 230.107 140.303 229.916C139.599 229.013 138.303 228.854 137.398 229.543L137.382 229.556C137.349 229.582 137.316 229.608 137.289 229.629C137.1 229.794 136.949 229.983 136.839 230.191C133.36 236.209 128.501 241.677 122.399 246.443C102.977 261.612 76.8904 265.047 76.6343 265.08C76.2577 265.127 75.9082 265.277 75.6129 265.508Z" fill="black"/>
<path d="M68.5859 218.546C61.5568 212.037 56.5387 190.902 47.4574 165.668C41.3912 155.951 36.0476 145.784 31.377 135.328C30.8156 134.226 30.6842 133.044 30.88 132.054C31.0813 131.061 31.6249 130.258 32.4651 129.857C33.3052 129.456 34.2784 129.541 35.1769 129.993C36.0765 130.435 36.8698 131.259 37.4154 132.329C42.9946 142.268 49.2346 151.859 56.1788 160.908C56.8621 160.577 57.5454 160.246 58.2317 159.93L44.4687 112.876C43.4649 109.945 44.4404 106.956 46.6381 106.208C48.8412 105.456 51.4364 107.223 52.4402 110.154L70.1779 155.275C70.9143 155.034 71.6593 154.804 72.4042 154.575L63.6952 103.442C63.0393 100.415 64.3492 97.561 66.6198 97.0642C68.8946 96.5728 71.2719 98.6248 71.9278 101.651L85.13 151.538C85.9239 151.393 86.7262 151.259 87.5328 151.131C87.7928 139.009 87.3985 126.86 86.3412 114.798C86.0086 110.99 85.5708 107.195 85.0734 103.401C84.8136 101.897 85.0005 100.456 85.5654 99.3198C86.1248 98.1874 87.0371 97.3605 88.1776 97.13C89.3181 96.8995 90.4739 97.3086 91.4152 98.1757C92.3564 99.0427 93.1094 100.356 93.3729 101.911C96.8815 117.675 99.0177 133.666 100.193 149.757C102.388 161.089 105.697 171.154 105.697 171.154C109.533 166.248 111.353 162.063 112.959 159.171C114.735 155.989 116.634 152.436 120.523 149.153C127.534 143.228 132.074 144.736 132.806 146.62C133.47 148.338 131.648 150.649 130.755 152.007C129.66 153.672 128.723 155.144 127.892 156.514C125.867 159.839 122.709 168.195 120.399 175.281C117.27 192.69 116.265 203.678 108.86 212.481L112.611 229.773C99.2342 230.387 85.8607 231.174 72.518 232.192C69.6564 223.749 68.5914 218.542 68.5914 218.542L68.5859 218.546Z" fill="#58C3B7" stroke="black" stroke-width="2" stroke-miterlimit="10"/>
<path d="M69.6813 222.981C72.0116 251.18 83.7475 269.498 101.241 280.028C127.87 296.055 161.348 284.883 184.217 275.086C196.479 269.832 217.99 270.92 229.257 280.872C237.478 288.141 239.257 300.089 234.533 316.393C231.551 326.698 237.482 337.471 247.797 340.455C254.026 342.254 260.422 340.806 265.169 337.1C268.28 334.67 270.674 331.277 271.858 327.201C283.994 285.265 266.498 261.938 254.99 251.769C230.603 230.214 192.448 229.299 168.92 239.381C140.009 251.766 127.06 250.223 121.279 246.745C113.585 242.111 112.604 229.786 110.09 218.474" fill="#58C3B7"/>
<path d="M69.6813 222.981C72.0116 251.18 83.7475 269.498 101.241 280.028C127.87 296.055 161.348 284.883 184.217 275.086C196.479 269.832 217.99 270.92 229.257 280.872C237.478 288.141 239.257 300.089 234.533 316.393C231.551 326.698 237.482 337.471 247.797 340.455C254.026 342.254 260.422 340.806 265.169 337.1C268.28 334.67 270.674 331.277 271.858 327.201C283.994 285.265 266.498 261.938 254.99 251.769C230.603 230.214 192.448 229.299 168.92 239.381C140.009 251.766 127.06 250.223 121.279 246.745C113.585 242.111 112.604 229.786 110.09 218.474" stroke="black" stroke-width="2" stroke-linecap="round" stroke-linejoin="round"/>
<path d="M86.3228 205.829C86.5376 205.811 86.3775 203.656 86.684 200.239C86.8492 198.534 87.1275 196.512 87.6884 194.322C88.2439 192.136 89.0473 189.783 90.2207 187.476C90.3747 187.188 90.5092 186.898 90.6675 186.616C90.8258 186.334 90.9828 186.062 91.1356 185.784C91.4637 185.246 91.7864 184.713 92.1347 184.212C92.8172 183.203 93.5358 182.263 94.2771 181.42C94.3694 181.313 94.4617 181.206 94.5485 181.103C94.6451 181.001 94.7361 180.903 94.8327 180.802C95.0203 180.602 95.1982 180.402 95.3847 180.212C95.7618 179.838 96.1237 179.468 96.5003 179.138C97.2322 178.452 97.9649 177.88 98.6418 177.36C100.013 176.342 101.207 175.629 102.046 175.159C102.458 174.908 102.795 174.742 103.01 174.6C103.229 174.464 103.335 174.364 103.321 174.322C103.306 174.281 103.162 174.288 102.908 174.346C102.658 174.409 102.28 174.501 101.823 174.682C100.893 175.012 99.5876 175.618 98.0962 176.571C97.3591 177.059 96.5594 177.613 95.7593 178.291C95.3492 178.611 94.9569 178.988 94.545 179.362C94.3391 179.55 94.146 179.753 93.9432 179.956C93.8466 180.058 93.7403 180.158 93.6383 180.264C93.5363 180.37 93.444 180.478 93.342 180.584C92.5399 181.439 91.7635 182.406 91.0318 183.453C90.6561 183.975 90.3159 184.532 89.9659 185.087C89.8021 185.373 89.6384 185.659 89.4735 185.955C89.3043 186.246 89.1631 186.55 89.0025 186.852C87.7757 189.271 86.9677 191.742 86.4641 194.028C85.9508 196.313 85.7658 198.42 85.7225 200.18C85.6583 203.716 86.1677 205.845 86.3283 205.825L86.3228 205.829Z" fill="black"/>
<path d="M65.8203 182.711C65.851 182.863 67.9177 182.657 71.2127 182.029C72.0382 181.869 72.9354 181.688 73.897 181.465C74.8617 181.257 75.8822 180.997 76.9581 180.729C79.1026 180.172 81.4489 179.502 83.8844 178.709C86.3157 177.911 88.6044 177.065 90.6632 176.241C91.6889 175.818 92.6666 175.424 93.5664 175.021C94.4747 174.628 95.3028 174.246 96.059 173.884C99.0883 172.443 100.875 171.382 100.808 171.24C100.729 171.082 98.8134 171.865 95.7203 173.101C94.9463 173.406 94.0939 173.746 93.1861 174.094C92.277 174.452 91.2932 174.815 90.2668 175.203C88.2012 175.963 85.9173 176.769 83.511 177.566C81.0961 178.351 78.7809 179.05 76.6694 179.66C75.6094 179.96 74.6047 180.252 73.6602 180.497C72.7187 180.756 71.835 180.989 71.0285 181.196C67.8014 182.035 65.7974 182.535 65.83 182.712L65.8203 182.711Z" fill="black"/>
<path d="M143.741 243.516C143.566 243.653 143.349 243.735 143.121 243.737C142.844 243.742 115.15 244.454 95.4649 259.828C90.1226 264 85.7955 268.92 82.6089 274.455C82.5403 274.57 82.4535 274.673 82.3496 274.754C82.1801 274.886 81.9776 274.965 81.7543 274.973C81.3966 274.988 81.0658 274.824 80.859 274.536L76.0631 267.753C75.8446 267.439 75.8103 267.035 75.9813 266.69C76.231 266.187 82.2629 254.196 95.2659 244.04C108.269 233.885 122.471 229.616 138.522 230.532C138.919 230.556 139.27 230.802 139.422 231.167L144.07 242.291C144.204 242.609 144.169 242.971 143.981 243.259C143.914 243.355 143.84 243.439 143.747 243.512L143.741 243.516Z" fill="#F6B11D"/>
<path d="M95.8916 244.864C105.849 237.087 119.895 230.51 138.448 231.576L143.096 242.7C143.096 242.7 115.019 243.227 94.8148 259.006C89.7623 262.952 85.2058 267.849 81.6996 273.933L76.9037 267.149C76.9037 267.149 82.9323 254.985 95.8916 244.864ZM94.6104 243.223C81.4269 253.519 75.2907 265.715 75.0356 266.223C74.6992 266.908 74.7568 267.726 75.1992 268.348L79.9951 275.132C80.4033 275.711 81.0843 276.042 81.7901 276.01C82.227 275.994 82.6374 275.832 82.9764 275.567C83.1842 275.405 83.3621 275.205 83.5004 274.965C86.6228 269.55 90.8587 264.728 96.0971 260.637C115.498 245.485 142.865 244.773 143.133 244.766C143.59 244.753 144.024 244.599 144.374 244.325C144.554 244.184 144.708 244.02 144.836 243.824C145.213 243.247 145.278 242.519 145.01 241.883L140.363 230.758C140.053 230.023 139.357 229.527 138.557 229.483C122.246 228.55 107.453 233.167 94.5976 243.207L94.6104 243.223Z" fill="black"/>
<path d="M73.0395 259.744C72.9411 259.821 72.8298 259.881 72.7015 259.92C72.3622 260.027 71.9914 259.946 71.7232 259.716L65.3852 254.339C65.0944 254.091 64.9592 253.704 65.0393 253.333C65.0876 253.102 70.1373 230.125 89.6364 214.897C97.4065 208.828 106.485 204.74 116.607 202.742C116.997 202.666 117.398 202.819 117.636 203.135L124.911 212.754C125.124 213.027 125.178 213.39 125.064 213.717C124.996 213.911 124.876 214.084 124.722 214.204C124.619 214.285 124.492 214.349 124.364 214.387C124.205 214.432 108.309 218.933 94.1191 230.015C83.4455 238.351 76.4745 248.17 73.4066 259.211C73.3455 259.426 73.2187 259.613 73.0438 259.75L73.0395 259.744Z" fill="#C1272D"/>
<path d="M90.2773 215.717C97.1452 210.353 105.845 205.926 116.808 203.765L124.082 213.384C124.082 213.384 108.003 217.842 93.4691 229.193C84.4359 236.248 76 245.961 72.3938 258.928L66.0557 253.552C66.0557 253.552 70.8493 230.89 90.2719 215.721M88.9907 214.081C69.1963 229.54 64.2201 252.16 64.0181 253.118C63.862 253.865 64.1271 254.644 64.7086 255.141L71.0466 260.517C71.5885 260.974 72.3257 261.129 73.0044 260.916C73.2513 260.838 73.4781 260.722 73.6749 260.569C74.0194 260.3 74.2785 259.921 74.3963 259.486C77.4075 248.665 84.2571 239.029 94.7503 230.833C108.759 219.892 124.478 215.434 124.636 215.389C124.903 215.313 125.15 215.191 125.363 215.024C125.68 214.776 125.92 214.44 126.056 214.051C126.275 213.396 126.161 212.675 125.744 212.13L118.469 202.511C117.989 201.874 117.191 201.573 116.411 201.724C106.128 203.751 96.9018 207.911 89.0004 214.082L88.9907 214.081Z" fill="black"/>
<path d="M107.083 95.2702L128.192 81.1664C129.01 80.6194 130.121 80.8934 130.596 81.7572L134.143 88.2543C134.602 89.0959 134.264 90.147 133.404 90.5645L110.624 101.615C109.818 102.007 108.851 101.694 108.423 100.911L106.542 97.4682C106.126 96.7083 106.359 95.7544 107.083 95.2702Z" fill="#F6B11D" stroke="black" stroke-width="2" stroke-linecap="round" stroke-linejoin="round"/>
<path d="M91.589 80.6494L100.905 59.7269C101.233 58.9928 102.121 58.6969 102.823 59.0864L108.825 62.4294C109.508 62.8114 109.735 63.6873 109.322 64.3491L97.263 83.7449C96.8744 84.3658 96.0732 84.5758 95.4318 84.2181L92.1735 82.4017C91.5525 82.0562 91.2986 81.2933 91.5885 80.6447L91.589 80.6494Z" fill="#58C3B7" stroke="black" stroke-width="2" stroke-linecap="round" stroke-linejoin="round"/>
<path d="M76.0138 82.7666L68.8467 61.0181C68.5929 60.2551 69.0512 59.4353 69.8365 59.2557L76.5311 57.6936C77.2926 57.5166 78.0492 58.0104 78.1889 58.7807L82.3008 81.2433C82.4302 81.962 81.9777 82.6567 81.2629 82.824L77.6283 83.6716C76.9367 83.8316 76.2391 83.4417 76.0138 82.7666Z" fill="white" stroke="black" stroke-width="2" stroke-linecap="round" stroke-linejoin="round"/>
<g filter="url(#filter0_d_1362_3363)">
<path d="M138.696 201.001L142.988 194.844C145.273 196.467 147.784 197.644 150.909 197.644C152.973 197.644 154.313 197.14 154.313 196.189C154.313 195.128 152.637 194.734 150.184 194.23C145.835 193.332 139.589 191.992 139.589 184.938C139.589 178.445 145.11 175.315 151.97 175.315C157.27 175.315 160.947 177.106 163.736 178.95L159.445 185.106C157.16 183.819 154.985 182.868 152.364 182.868C150.804 182.868 149.464 183.204 149.464 184.097C149.464 185.106 151.14 185.494 153.477 185.946C157.827 186.787 164.183 188.184 164.183 195.233C164.183 201.778 158.552 205.192 151.298 205.192C145.609 205.192 141.596 203.123 138.696 200.995V201.001Z" fill="white" stroke="black" stroke-width="2" stroke-miterlimit="10"/>
<path d="M163.846 190.253C163.846 181.749 170.48 175.309 179.294 175.309C188.109 175.309 194.743 181.744 194.743 190.253C194.743 198.763 188.109 205.197 179.294 205.197C170.48 205.197 163.846 198.763 163.846 190.253ZM184.426 190.253C184.426 187.286 182.252 185.048 179.294 185.048C176.337 185.048 174.163 187.286 174.163 190.253C174.163 193.221 176.337 195.459 179.294 195.459C182.252 195.459 184.426 193.221 184.426 190.253Z" fill="white" stroke="black" stroke-width="2" stroke-miterlimit="10"/>
<path d="M194.296 201.001L198.593 194.844C200.878 196.467 203.389 197.644 206.514 197.644C208.579 197.644 209.918 197.14 209.918 196.189C209.918 195.128 208.242 194.734 205.789 194.23C201.44 193.332 195.195 191.992 195.195 184.938C195.195 178.445 200.715 175.315 207.575 175.315C212.875 175.315 216.552 177.106 219.341 178.95L215.05 185.106C212.765 183.819 210.59 182.868 207.969 182.868C206.409 182.868 205.07 183.204 205.07 184.097C205.07 185.106 206.745 185.494 209.083 185.946C213.432 186.787 219.788 188.184 219.788 195.233C219.788 201.778 214.157 205.192 206.903 205.192C201.214 205.192 197.201 203.123 194.302 200.995L194.296 201.001Z" fill="white" stroke="black" stroke-width="2" stroke-miterlimit="10"/>
<path d="M219.951 198.705C219.951 195.012 222.74 192.213 226.475 192.213C230.209 192.213 232.998 195.012 232.998 198.705C232.998 202.398 230.209 205.197 226.475 205.197C222.74 205.197 219.951 202.398 219.951 198.705ZM221.18 175.425V165.912H231.832V175.425L231.165 190.537H221.852L221.185 175.425H221.18Z" fill="white" stroke="black" stroke-width="2" stroke-miterlimit="10"/>
</g>
</g>
<defs>
<filter id="filter0_d_1362_3363" x="137.696" y="164.912" width="101.842" height="46.8252" filterUnits="userSpaceOnUse" color-interpolation-filters="sRGB">
<feFlood flood-opacity="0" result="BackgroundImageFix"/>
<feColorMatrix in="SourceAlpha" type="matrix" values="0 0 0 0 0 0 0 0 0 0 0 0 0 0 0 0 0 0 127 0" result="hardAlpha"/>
<feOffset dx="5.54" dy="5.54"/>
<feColorMatrix type="matrix" values="0 0 0 0 0 0 0 0 0 0 0 0 0 0 0 0 0 0 1 0"/>
<feBlend mode="normal" in2="BackgroundImageFix" result="effect1_dropShadow_1362_3363"/>
<feBlend mode="normal" in="SourceGraphic" in2="effect1_dropShadow_1362_3363" result="shape"/>
</filter>
</defs>
</svg>
