<svg xmlns="http://www.w3.org/2000/svg" viewBox="0 0 405 795.59">
    <defs>
        <style>.cls-1{fill:none;}.cls-2{fill:#c3e5de;}.cls-3{fill:#ffdeab;}</style>
    </defs>
    <path class="cls-1"
          d="M364.77,273.79a276.07,276.07,0,0,0-38.13,57c-10.54,21.4-17.06,43.09-19.41,64.47a186.19,186.19,0,0,0-1.33,27.33,213.22,213.22,0,0,0,2.63,26.22c.22,1.34.45,2.69.7,4,7.4,40.15,27.16,78.48,58.77,114a360.37,360.37,0,0,0,37,35.79V235.51A285,285,0,0,0,364.77,273.79Z"/>
    <path class="cls-1"
          d="M250.1,577.72c-30.92-40.62-50.34-81.91-57.92-123A217.43,217.43,0,0,1,189,429.85a9.28,9.28,0,1,1,18.52-1.27c3.13,45.63,22.41,92,57.32,137.89C303.83,617.65,355.63,655,405,684.74V626.58a390.36,390.36,0,0,1-50.87-47.38c-33.9-38.08-55.14-79.43-63.16-123-.28-1.48-.53-2.95-.77-4.43a230.58,230.58,0,0,1-2.85-28.5,202.21,202.21,0,0,1,1.42-30.07c2.58-23.53,9.71-47.3,21.2-70.64a294.86,294.86,0,0,1,40.69-60.89A310.57,310.57,0,0,1,405,212.17V149.72a473.88,473.88,0,0,0-59.7,37,424,424,0,0,0-62.67,55.93c-22,24-41.62,56.29-60.08,98.6a9.29,9.29,0,0,1-17-7.44c19.3-44.2,40-78.12,63.4-103.69a442.8,442.8,0,0,1,65.41-58.39A494.62,494.62,0,0,1,405,128.86V71.39c-2.07.88-4.15,1.76-6.23,2.66C362.08,89.89,328.24,108,298.19,127.78A493.9,493.9,0,0,0,211.24,200c-22.94,24.22-41.87,49.62-56.26,75.49a279.51,279.51,0,0,0-24.8,59.16,20.08,20.08,0,0,1-7.3,35.27,234,234,0,0,0,2,71.1,266,266,0,0,0,25.21,74,9.29,9.29,0,0,1-4.18,12.57,9.5,9.5,0,0,1-12.51-4.41,284.36,284.36,0,0,1-26.56-77.58l-.24-1.34a252.23,252.23,0,0,1-1.88-78.56,20.1,20.1,0,0,1,7.15-34.46,297.63,297.63,0,0,1,26.92-64.82c15.15-27.22,35-53.87,59-79.22a512.88,512.88,0,0,1,90.21-75c30.95-20.41,65.75-39,103.44-55.27q6.81-2.94,13.59-5.74V0H0V795.59H405V706.36C351.28,674.73,293.43,634.65,250.1,577.72Z"/>
    <path class="cls-2"
          d="M288,112.27a512.88,512.88,0,0,0-90.21,75c-24,25.35-43.86,52-59,79.22a297.63,297.63,0,0,0-26.92,64.82,19.5,19.5,0,0,1,2.31-.58,20,20,0,0,1,16,4A279.51,279.51,0,0,1,155,275.51c14.39-25.87,33.32-51.27,56.26-75.49a493.9,493.9,0,0,1,86.95-72.24C328.24,108,362.08,89.89,398.77,74.05c2.08-.9,4.16-1.78,6.23-2.66V51.26q-6.78,2.81-13.59,5.74C353.72,73.27,318.92,91.86,288,112.27Z"/>
    <path class="cls-2"
          d="M104.68,365.75a252.23,252.23,0,0,0,1.88,78.56l.24,1.34a284.36,284.36,0,0,0,26.56,77.58,9.5,9.5,0,0,0,12.51,4.41,9.29,9.29,0,0,0,4.18-12.57,266,266,0,0,1-25.21-74,234,234,0,0,1-2-71.1c-.48.12-.95.25-1.44.34A20.09,20.09,0,0,1,104.68,365.75Z"/>
    <path class="cls-3"
          d="M264.88,566.47C230,520.6,210.69,474.21,207.56,428.58A9.28,9.28,0,1,0,189,429.85a217.43,217.43,0,0,0,3.14,24.83c7.58,41.13,27,82.42,57.92,123,43.33,56.93,101.18,97,154.9,128.64V684.74C355.63,655,303.83,617.65,264.88,566.47Z"/>
    <path class="cls-3"
          d="M268.92,230.16c-23.36,25.57-44.1,59.49-63.4,103.69a9.29,9.29,0,0,0,17,7.44c18.46-42.31,38.12-74.56,60.08-98.6a424,424,0,0,1,62.67-55.93,473.88,473.88,0,0,1,59.7-37V128.86a494.62,494.62,0,0,0-70.67,42.91A442.8,442.8,0,0,0,268.92,230.16Z"/>
    <path class="cls-2"
          d="M350.66,261.72A294.86,294.86,0,0,0,310,322.61c-11.49,23.34-18.62,47.11-21.2,70.64a202.21,202.21,0,0,0-1.42,30.07,230.58,230.58,0,0,0,2.85,28.5c.24,1.48.49,2.95.77,4.43,8,43.52,29.26,84.87,63.16,123A390.36,390.36,0,0,0,405,626.58V602.64a360.37,360.37,0,0,1-37-35.79c-31.61-35.51-51.37-73.84-58.77-114-.25-1.34-.48-2.69-.7-4a213.22,213.22,0,0,1-2.63-26.22,186.19,186.19,0,0,1,1.33-27.33c2.35-21.38,8.87-43.07,19.41-64.47a276.07,276.07,0,0,1,38.13-57A285,285,0,0,1,405,235.51V212.17A310.57,310.57,0,0,0,350.66,261.72Z"/>
    <path class="cls-3"
          d="M122.88,369.94a20.08,20.08,0,0,0,7.3-35.27,244.27,244.27,0,0,0-6.37,28.64C123.46,365.52,123.16,367.73,122.88,369.94Z"/>
    <path class="cls-3"
          d="M111.83,331.29a20.1,20.1,0,0,0-7.15,34.46c.25-1.78.51-3.57.79-5.34A261.8,261.8,0,0,1,111.83,331.29Z"/>
    <path class="cls-3"
          d="M114.14,330.71a19.5,19.5,0,0,0-2.31.58,261.8,261.8,0,0,0-6.36,29.12c-.28,1.77-.54,3.56-.79,5.34a20.09,20.09,0,0,0,16.76,4.53c.49-.09,1-.22,1.44-.34.28-2.21.58-4.42.93-6.63a244.27,244.27,0,0,1,6.37-28.64A20,20,0,0,0,114.14,330.71Z"/>
</svg>