<svg xmlns="http://www.w3.org/2000/svg" viewBox="0 0 316.27 742.81">
    <defs>
        <style>.cls-1{fill:#ffdeab;}.cls-2{fill:#c3e5de;}</style>
    </defs>
    <path class="cls-1"
          d="M287.63,326.49a301.88,301.88,0,0,1,6.54,49.38c2.09,42.44-5,81.43-21.69,119.2a10.15,10.15,0,0,0,18.57,8.21c17.75-40.16,25.62-83.36,23.4-128.41a322.41,322.41,0,0,0-6.8-51.9A22,22,0,0,1,287.63,326.49Z"/>
    <path class="cls-1"
          d="M159.61,656.31C197,629,228,599.45,251.91,568.46a10.15,10.15,0,0,0-16.08-12.4c-22.73,29.48-52.4,57.69-88.21,83.86-41.5,30.33-91,57.48-147.62,81v21.94C61.32,718,114.91,689,159.61,656.31Z"/>
    <path class="cls-1"
          d="M296.57,283.65a350.68,350.68,0,0,0-32.12-67.25C237.81,172.92,200,131.09,152.11,92.05,109.33,57.2,66.89,30.27,22.36,9.72Q11.26,4.59,0,0V22c4.64,2,9.26,4,13.86,6.12,43,19.83,84,45.88,125.42,79.64,46.13,37.59,82.41,77.7,107.85,119.22a329.85,329.85,0,0,1,30.53,64.09A22,22,0,0,1,296.57,283.65Z"/>
    <path class="cls-2"
          d="M83.45,149.22A456.09,456.09,0,0,0,0,92.2v23.16a437.66,437.66,0,0,1,70.25,49.29c4.39,3.75,8.91,7.78,13.82,12.3A10.16,10.16,0,0,0,97.82,162C92.73,157.32,88,153.14,83.45,149.22Z"/>
    <path class="cls-2"
          d="M176.37,513.2c28.65-51.63,32.48-98.47,31.8-133.75-.61-31.91-11.38-60.62-21.42-85-9.31-22.61-22.57-52-42.66-78.65A10.15,10.15,0,1,0,127.88,228c14.59,19.36,27,42.23,40.09,74.16,9.34,22.69,19.36,49.28,19.9,77.68.69,35.81-4.4,66.21-16,95.68a235.12,235.12,0,0,1-12,25.63,22.2,22.2,0,0,1,4.23,1.06A22,22,0,0,1,176.37,513.2Z"/>
    <path class="cls-2"
          d="M88.6,587.4C71.07,602.77,42.27,625,0,648.75V672c39.52-21.31,73.75-44.56,102-69.32,22.23-19.48,39.88-38.84,53.9-57.76a22.08,22.08,0,0,1-6.68-1.29,21.84,21.84,0,0,1-11.07-8.82A356.41,356.41,0,0,1,88.6,587.4Z"/>
    <path class="cls-1"
          d="M21.53,202.05c-6.91-6-14.11-11.71-21.53-17.18v25.65q4.19,3.39,8.26,6.9c56.48,48.81,86.57,105.71,89.45,169.1,1.57,34.78-8.53,70.86-30,107.23A296.54,296.54,0,0,1,0,572.11v25.77c35.19-26.2,63.83-57.72,85.16-93.8C108.7,464.26,119.75,424.39,118,385.6,114.85,316.42,82.4,254.66,21.53,202.05Z"/>
    <path class="cls-2"
          d="M301.7,284.82a21.75,21.75,0,0,0-5.13-1.17,22,22,0,0,0-9.74,42.57c.26.1.53.18.8.27a22,22,0,0,0,14.07-41.67Z"/>
    <path class="cls-1" d="M149.2,543.61a22,22,0,1,0-11.07-8.82A21.84,21.84,0,0,0,149.2,543.61Z"/>
</svg>