<svg xmlns="http://www.w3.org/2000/svg" viewBox="0 0 252.59 627.97">
    <defs>
        <style>.cls-1{fill:#ffdeab;}.cls-2{fill:#c3e5de;}</style>
    </defs>
    <path class="cls-1"
          d="M252.59,628V607.36q-10.23-4.59-20.56-9.61c-51.93-25.29-94.88-54.49-127.72-86.8a23,23,0,0,1-13.54,13.93c34.2,33.31,78.48,63.32,131.71,89.24Q237.65,621.51,252.59,628Z"/>
    <path class="cls-1"
          d="M77.41,481c-23.24-29.5-39.69-61.77-49.08-96.31C18.1,347,17.54,310.77,26.63,274c1.23-5-2.2-10-7.67-11.09s-10.9,2-12.14,7C-2.84,309-2.24,349.14,8.63,389.14c10.15,37.39,28.06,72.25,53.36,104A23,23,0,0,1,77.41,481Z"/>
    <path class="cls-1"
          d="M106.28,109.48c-31.39,31.07-56.16,63-73.62,95.05-2.51,4.58-.47,10.15,4.55,12.44s11.11.42,13.62-4.16c16.61-30.43,40.28-61,70.37-90.74,35.36-35,79.46-68.53,131.39-99.93V0C194.42,34.12,145.27,70.88,106.28,109.48Z"/>
    <path class="cls-2"
          d="M117,242.15C99.38,292.88,104.62,335.07,112,366.3c6.76,28.51,22.86,52.35,37.42,72.46,13.5,18.64,32.17,42.64,57,63a10.82,10.82,0,0,0,14.33-.72A8.72,8.72,0,0,0,220,488c-18.05-14.79-34.59-33.12-53.64-59.43-13.55-18.7-28.5-40.78-34.52-66.14-7.58-32-8.45-60.15-2.72-88.63a200.25,200.25,0,0,1,6.23-23.38l-.79,0A23,23,0,0,1,117,242.15Z"/>
    <path class="cls-2"
          d="M252.59,97.52V72.84c-31.48,24.33-58.12,49.33-79.43,74.59a340.07,340.07,0,0,0-39.44,57l.87,0a22.94,22.94,0,0,1,17.42,8,326.31,326.31,0,0,1,37.23-53.62C201.91,143.75,222.28,122.32,252.59,97.52Z"/>
    <path class="cls-1" d="M134.59,204.39l-.87,0a23,23,0,0,0,.87,46l.79,0a23,23,0,0,0-.79-46Z"/>
    <path class="cls-2"
          d="M104.31,511a23,23,0,0,0-21.72-30.56A23,23,0,0,0,62,493.16,23,23,0,1,0,104.31,511Z"/>
</svg>