<svg width="32" height="32" viewBox="0 0 32 32" fill="none" xmlns="http://www.w3.org/2000/svg">
<path d="M19.8162 8.7998H12.4719C10.4439 8.7998 8.7998 10.4439 8.7998 12.4719V19.8162C8.7998 21.8442 10.4439 23.4883 12.4719 23.4883H19.8162C21.8442 23.4883 23.4883 21.8442 23.4883 19.8162V12.4719C23.4883 10.4439 21.8442 8.7998 19.8162 8.7998Z" stroke="white" stroke-linecap="round" stroke-linejoin="round"/>
<path d="M19.0812 15.6818C19.3209 17.2866 18.212 18.78 16.6072 19.0196C15.0023 19.2592 13.509 18.1503 13.2694 16.5455C13.0298 14.9407 14.1386 13.4474 15.7435 13.2077C16.0276 13.1632 16.3174 13.1632 16.6072 13.2077C17.8888 13.3972 18.8918 14.4002 19.0812 15.6818Z" stroke="white" stroke-linecap="round" stroke-linejoin="round"/>
<path d="M20.1841 12.1045H20.1919" stroke="white" stroke-linecap="round" stroke-linejoin="round"/>
</svg>
