<svg xmlns="http://www.w3.org/2000/svg" viewBox="0 0 127.91 127.88" width="128">
    <defs>
        <style>.cls-1{fill:#fff;}</style>
    </defs>
    <path id="play-button" class="cls-1"
          d="M127,53A63.94,63.94,0,0,0,5.29,38.49,62.56,62.56,0,0,0,.22,58.85,12.71,12.71,0,0,1,0,60.18v7.49c.32,2.38.56,4.78,1,7.14a63.77,63.77,0,0,0,48.19,51.27c3.23.76,6.56,1.06,9.84,1.58.41.06.81.14,1.22.22H67.7c2.39-.32,4.78-.56,7.15-1a63.78,63.78,0,0,0,51.27-48.21c.75-3.23,1-6.56,1.57-9.84.06-.4.14-.8.22-1.2V60.18C127.59,57.79,127.35,55.4,127,53Zm-12,14.2A51.11,51.11,0,1,1,67.23,12.92,51,51,0,0,1,115,67.23Zm-28.57.84q-16,9.29-32.07,18.53c-3.87,2.23-6.11.91-6.12-3.6,0-6.2,0-12.4,0-18.6H48Q48,55,48,45.68c0-1.61,0-3.28,1.59-4.22s3.13-.11,4.55.71L86.34,61C90.22,63.22,90.24,65.84,86.38,68.07Z"/>
</svg>