<svg width="32" height="32" viewBox="0 0 32 32" fill="none" xmlns="http://www.w3.org/2000/svg">
<path d="M25.0313 11.6935C24.8213 10.8601 24.1847 10.1973 23.3513 9.96103C21.8616 9.6001 15.9161 9.6001 15.9161 9.6001C15.9161 9.6001 9.964 9.6001 8.4809 10.0004C7.65404 10.2366 7.01093 10.8929 6.80093 11.7329C6.53187 13.2422 6.39406 14.7713 6.40062 16.3069C6.39406 17.8556 6.52531 19.3977 6.80093 20.9137C7.03061 21.7208 7.66716 22.3508 8.4809 22.5739C9.97056 22.9742 15.9161 22.9742 15.9161 22.9742C15.9161 22.9742 21.8682 22.9742 23.3513 22.5739C24.1781 22.3377 24.8213 21.6815 25.0313 20.8415C25.3003 19.3452 25.4316 17.8228 25.4316 16.3003C25.4381 14.7516 25.3069 13.2094 25.0313 11.6935Z" stroke="white" stroke-linecap="round" stroke-linejoin="round"/>
<path d="M13.9673 19.1285L18.9416 16.3001L13.9673 13.4717V19.1285Z" stroke="white" stroke-linecap="round" stroke-linejoin="round"/>
</svg>
